<svg width="1921" height="674" xmlns="http://www.w3.org/2000/svg" xmlns:xlink="http://www.w3.org/1999/xlink"><defs><linearGradient x1="51.287%" y1="0%" x2="51.287%" y2="28.585%" id="b"><stop stop-color="#5F57DA" offset="0%"/><stop stop-color="#FFCDFB" offset="100%"/></linearGradient><linearGradient x1="50%" y1="3.962%" x2="50%" y2="100%" id="e"><stop stop-color="#AB95FC" offset="0%"/><stop stop-color="#AF95E7" offset="100%"/></linearGradient><linearGradient x1="16.981%" y1="49.93%" x2="68.308%" y2="50.45%" id="f"><stop stop-color="#9982E6" offset="0%"/><stop stop-color="#CB9EF8" stop-opacity="0" offset="100%"/></linearGradient><linearGradient x1="50%" y1="0%" x2="50%" y2="100%" id="g"><stop stop-color="#E9CFFF" offset="0%"/><stop stop-color="#D0B0FD" offset="100%"/></linearGradient><linearGradient x1="48.664%" y1="0%" x2="51.429%" y2="57.373%" id="h"><stop stop-color="#CAAAF7" offset="0%"/><stop stop-color="#D0B1FE" offset="100%"/></linearGradient><linearGradient x1="50%" y1="0%" x2="50%" y2="100%" id="i"><stop stop-color="#EADCFF" offset="0%"/><stop stop-color="#D9BCFE" offset="100%"/></linearGradient><linearGradient x1="50%" y1="0%" x2="50%" y2="100%" id="j"><stop stop-color="#E8CEFE" offset="0%"/><stop stop-color="#CEB0FD" offset="100%"/></linearGradient><linearGradient x1="95.447%" y1="57.593%" x2="29.773%" y2="10.644%" id="k"><stop stop-color="#735CD0" offset="0%"/><stop stop-color="#9B87EA" offset="100%"/></linearGradient><linearGradient x1="52.798%" y1="57.593%" x2="48.755%" y2="10.644%" id="l"><stop stop-color="#735CD0" offset="0%"/><stop stop-color="#9B87EA" offset="100%"/></linearGradient><linearGradient x1="50%" y1="0%" x2="50%" y2="100%" id="m"><stop stop-color="#DEC3FA" offset="0%"/><stop stop-color="#D0B0FD" offset="100%"/></linearGradient><linearGradient x1="44.705%" y1="-1.443%" x2="54.611%" y2="94.551%" id="n"><stop stop-color="#F0E7FF" offset="0%"/><stop stop-color="#F2D8FF" offset="100%"/></linearGradient><linearGradient x1="162.344%" y1="52.346%" x2="0%" y2="37.84%" id="o"><stop stop-color="#735CD0" offset="0%"/><stop stop-color="#9B87EA" offset="100%"/></linearGradient><linearGradient x1="52.165%" y1="57.593%" x2="49.036%" y2="10.644%" id="p"><stop stop-color="#735CD0" offset="0%"/><stop stop-color="#9B87EA" offset="100%"/></linearGradient><linearGradient x1="46.755%" y1="0%" x2="53.473%" y2="57.373%" id="q"><stop stop-color="#ECDDFE" offset="0%"/><stop stop-color="#D5BBFC" offset="100%"/></linearGradient><linearGradient x1="50%" y1="0%" x2="50%" y2="100%" id="r"><stop stop-color="#DEC3FA" offset="0%"/><stop stop-color="#D0B0FD" offset="100%"/></linearGradient><linearGradient x1="21.904%" y1="-1.443%" x2="74.465%" y2="94.551%" id="s"><stop stop-color="#F0E7FF" offset="0%"/><stop stop-color="#F2D8FF" offset="100%"/></linearGradient><linearGradient x1="162.344%" y1="53.724%" x2="0%" y2="30.695%" id="t"><stop stop-color="#735CD0" offset="0%"/><stop stop-color="#9B87EA" offset="100%"/></linearGradient><linearGradient x1="0%" y1="39.828%" x2="93.539%" y2="58.809%" id="u"><stop stop-color="#F0E7FF" offset="0%"/><stop stop-color="#F2D8FF" offset="100%"/></linearGradient><linearGradient x1="162.344%" y1="53.378%" x2="0%" y2="32.49%" id="v"><stop stop-color="#735CD0" offset="0%"/><stop stop-color="#9B87EA" offset="100%"/></linearGradient><linearGradient x1="41.145%" y1="0%" x2="59.476%" y2="57.373%" id="w"><stop stop-color="#ECDDFE" offset="0%"/><stop stop-color="#D5BBFC" offset="100%"/></linearGradient><linearGradient x1="54.008%" y1="57.593%" x2="48.216%" y2="10.644%" id="x"><stop stop-color="#735CD0" offset="0%"/><stop stop-color="#9B87EA" offset="100%"/></linearGradient><linearGradient x1="50%" y1="0%" x2="50%" y2="100%" id="y"><stop stop-color="#F0D6FF" offset="0%"/><stop stop-color="#D1B1FE" offset="100%"/></linearGradient><linearGradient x1="162.344%" y1="53.878%" x2="0%" y2="29.899%" id="z"><stop stop-color="#735CD0" offset="0%"/><stop stop-color="#9B87EA" offset="100%"/></linearGradient><linearGradient x1="41.857%" y1="6.93%" x2="64.54%" y2="100%" id="A"><stop stop-color="#F5E7FF" offset="0%"/><stop stop-color="#D9BAFE" offset="100%"/></linearGradient><linearGradient x1="62.13%" y1="57.593%" x2="44.601%" y2="10.644%" id="B"><stop stop-color="#735CD0" offset="0%"/><stop stop-color="#9B87EA" offset="100%"/></linearGradient><linearGradient x1="50%" y1="0%" x2="50%" y2="100%" id="C"><stop stop-color="#EFD5FF" offset="0%"/><stop stop-color="#D6B9FC" offset="100%"/></linearGradient><linearGradient x1="20.573%" y1="31.381%" x2="102.546%" y2="71.614%" id="D"><stop stop-color="#F4E3FE" offset="0%"/><stop stop-color="#DDBFFE" offset="100%"/></linearGradient><linearGradient x1="162.344%" y1="55.088%" x2="0%" y2="23.627%" id="E"><stop stop-color="#735CD0" offset="0%"/><stop stop-color="#9B87EA" offset="100%"/></linearGradient><linearGradient x1="0%" y1="27.113%" x2="93.539%" y2="69.821%" id="F"><stop stop-color="#F2EAFF" offset="0%"/><stop stop-color="#F1D6FE" offset="100%"/></linearGradient><linearGradient x1="50%" y1="45.742%" x2="60.158%" y2="60.825%" id="G"><stop stop-color="#DDCCFD" offset="0%"/><stop stop-color="#ECCFFF" offset="100%"/></linearGradient><linearGradient x1="162.344%" y1="52.482%" x2="0%" y2="37.136%" id="H"><stop stop-color="#735CD0" offset="0%"/><stop stop-color="#9B87EA" offset="100%"/></linearGradient><linearGradient x1="113.128%" y1="57.593%" x2="21.904%" y2="10.644%" id="I"><stop stop-color="#735CD0" offset="0%"/><stop stop-color="#9B87EA" offset="100%"/></linearGradient><linearGradient x1="50%" y1="0%" x2="50%" y2="100%" id="J"><stop stop-color="#DEC3FA" offset="0%"/><stop stop-color="#D0B0FD" offset="100%"/></linearGradient><linearGradient x1="10.014%" y1="0%" x2="92.789%" y2="57.373%" id="K"><stop stop-color="#ECDDFE" offset="0%"/><stop stop-color="#D5BBFC" offset="100%"/></linearGradient><linearGradient x1="59.161%" y1="57.593%" x2="45.923%" y2="10.644%" id="L"><stop stop-color="#735CD0" offset="0%"/><stop stop-color="#9B87EA" offset="100%"/></linearGradient><linearGradient x1="38.379%" y1="-1.443%" x2="60.12%" y2="94.551%" id="M"><stop stop-color="#F3EFFF" offset="0%"/><stop stop-color="#EFD7FE" offset="100%"/></linearGradient><linearGradient x1="0%" y1="47.253%" x2="182.192%" y2="58.574%" id="N"><stop stop-color="#FCF9FF" offset="0%"/><stop stop-color="#F9D6FF" offset="100%"/></linearGradient><linearGradient x1="50%" y1="0%" x2="50%" y2="100%" id="O"><stop stop-color="#A081D2" offset="0%"/><stop stop-color="#F6E9FF" offset="100%"/></linearGradient><linearGradient x1="58.217%" y1="57.593%" x2="46.343%" y2="10.644%" id="P"><stop stop-color="#735CD0" offset="0%"/><stop stop-color="#9B87EA" offset="100%"/></linearGradient><linearGradient x1="50%" y1="0%" x2="50%" y2="100%" id="Q"><stop stop-color="#907DE1" offset="0%"/><stop stop-color="#8671DD" offset="100%"/></linearGradient><linearGradient x1="51.553%" y1="6.269%" x2="51.553%" y2="100%" id="S"><stop stop-color="#E8D6FF" offset="0%"/><stop stop-color="#D8B9FF" offset="5.732%"/><stop stop-color="#4F3DB5" offset="49.807%"/><stop stop-color="#2F2086" offset="100%"/></linearGradient><linearGradient x1="26.235%" y1="8.082%" x2="26.235%" y2="96.573%" id="T"><stop stop-color="#BBA0ED" offset="0%"/><stop stop-color="#4F3DB5" offset="100%"/></linearGradient><linearGradient x1="26.372%" y1="47.342%" x2="33.501%" y2="53.462%" id="V"><stop stop-color="#F4E5FF" offset="0%"/><stop stop-color="#D2B7FD" offset="100%"/></linearGradient><linearGradient x1="44.08%" y1="0%" x2="44.08%" y2="120.668%" id="W"><stop stop-color="#B69BEA" offset="0%"/><stop stop-color="#A289E0" offset="100%"/></linearGradient><linearGradient x1="24.659%" y1="49.017%" x2="96.565%" y2="50.82%" id="X"><stop stop-color="#5948BB" offset="0%"/><stop stop-color="#7D68CC" stop-opacity="0" offset="100%"/></linearGradient><linearGradient x1="24.659%" y1="48.563%" x2="96.565%" y2="51.198%" id="Y"><stop stop-color="#5948BB" offset="0%"/><stop stop-color="#7D68CC" stop-opacity="0" offset="100%"/></linearGradient><linearGradient x1="24.659%" y1="48.787%" x2="96.565%" y2="51.011%" id="Z"><stop stop-color="#5948BB" offset="0%"/><stop stop-color="#7D68CC" stop-opacity="0" offset="100%"/></linearGradient><linearGradient x1="50%" y1="0%" x2="50%" y2="50%" id="aa"><stop stop-color="#5D4BBC" offset="0%"/><stop stop-color="#E0AEF8" stop-opacity="0" offset="100%"/></linearGradient><linearGradient x1="24.659%" y1="48.515%" x2="96.565%" y2="51.238%" id="ac"><stop stop-color="#5948BB" offset="0%"/><stop stop-color="#6B57C4" stop-opacity="0" offset="100%"/></linearGradient><linearGradient x1="59.79%" y1="6.163%" x2="62.494%" y2="95.722%" id="ad"><stop stop-color="#AE94E6" offset="0%"/><stop stop-color="#A48BE1" offset="100%"/></linearGradient><linearGradient x1="6.716%" y1="16.652%" x2="15.661%" y2="64.215%" id="af"><stop stop-color="#E9C4FF" offset="0%"/><stop stop-color="#A387E3" offset="100%"/></linearGradient><linearGradient x1="44.08%" y1="14.369%" x2="59.895%" y2="71%" id="ag"><stop stop-color="#8974D3" offset="0%"/><stop stop-color="#5948BB" offset="100%"/></linearGradient><linearGradient x1="50%" y1="32.009%" x2="50%" y2="100%" id="ai"><stop stop-color="#2B1758" offset="0%"/><stop stop-color="#381E6F" offset="100%"/></linearGradient><linearGradient x1="1.82%" y1="49.994%" x2="100%" y2="49.994%" id="aj"><stop stop-color="#FFE8CF" offset="0%"/><stop stop-color="#FFEFDD" offset="27.76%"/><stop stop-color="#FFF3E8" offset="61.22%"/><stop stop-color="#FFF5EB" offset="100%"/></linearGradient><linearGradient x1="50%" y1="6.246%" x2="50%" y2="100%" id="al"><stop stop-color="#EBE5FF" offset="0%"/><stop stop-color="#D8CBF9" offset="100%"/></linearGradient><linearGradient x1="85.373%" y1="50.003%" x2="5.733%" y2="49.996%" id="am"><stop stop-color="#ED44B2" offset="0%"/><stop stop-color="#FA74CC" offset="100%"/></linearGradient><linearGradient x1="50%" y1="0%" x2="50%" y2="100%" id="an"><stop stop-color="#FFF" offset="0%"/><stop stop-color="#F2E3FD" offset="100%"/></linearGradient><linearGradient x1="-12.775%" y1="45.581%" x2="112.062%" y2="54.033%" id="ao"><stop stop-color="#FCF8FF" offset="0%"/><stop stop-color="#7550C7" offset="100%"/></linearGradient><linearGradient x1="0%" y1="44.744%" x2="100%" y2="56.677%" id="ap"><stop stop-color="#C1B1E4" offset="0%"/><stop stop-color="#B08AD1" offset="100%"/></linearGradient><linearGradient x1="7.479%" y1="53.447%" x2="47.128%" y2="53.447%" id="ar"><stop stop-color="#FFF" stop-opacity=".5" offset="0%"/><stop stop-color="#F0DAF6" stop-opacity=".305" offset="100%"/></linearGradient><linearGradient x1="59.519%" y1="43.914%" x2="42.397%" y2="49.551%" id="as"><stop stop-color="#5E57BC" offset="0%"/><stop stop-color="#9469D1" stop-opacity="0" offset="100%"/></linearGradient><linearGradient x1="0%" y1="49.837%" x2="100%" y2="50.208%" id="at"><stop stop-color="#7D54C0" offset="0%"/><stop stop-color="#5E37A5" offset="100%"/></linearGradient><linearGradient x1="-10.998%" y1="49.651%" x2="100%" y2="50.286%" id="av"><stop stop-color="#FFF" offset="0%"/><stop stop-color="#866FC9" offset="100%"/></linearGradient><linearGradient x1="46.531%" y1="49.262%" x2="215.232%" y2="49.837%" id="aw"><stop stop-color="#FFF" offset="0%"/><stop stop-color="#8972CA" offset="100%"/></linearGradient><linearGradient x1="0%" y1="8.635%" x2="100%" y2="102.546%" id="ax"><stop stop-color="#8F78CC" offset="0%"/><stop stop-color="#A485D0" offset="100%"/></linearGradient><linearGradient x1="0%" y1="8.635%" x2="94.935%" y2="91.365%" id="ay"><stop stop-color="#F3F0FA" offset="0%"/><stop stop-color="#EAE6F5" offset="100%"/></linearGradient><linearGradient x1="0%" y1="8.635%" x2="94.935%" y2="91.365%" id="az"><stop stop-color="#DED7F0" offset="0%"/><stop stop-color="#DAD2EE" offset="100%"/></linearGradient><linearGradient x1="50%" y1="0%" x2="50%" y2="100%" id="aA"><stop stop-color="#CAB0E3" offset="0%"/><stop stop-color="#DCC7F0" offset="100%"/></linearGradient><linearGradient x1="50%" y1="0%" x2="50%" y2="100%" id="aB"><stop stop-color="#C8BAEC" offset="0%"/><stop stop-color="#C9BBED" offset="100%"/></linearGradient><linearGradient x1="50%" y1="0%" x2="50%" y2="100%" id="aC"><stop stop-color="#C8BAEC" offset="0%"/><stop stop-color="#C9BBED" offset="100%"/></linearGradient><linearGradient x1="5.496%" y1="29.223%" x2="50%" y2="70.777%" id="aD"><stop stop-color="#E182FF" offset="0%"/><stop stop-color="#281589" offset="100%"/></linearGradient><linearGradient x1="24.659%" y1="47.214%" x2="96.565%" y2="52.322%" id="aE"><stop stop-color="#5948BB" offset="0%"/><stop stop-color="#6B57C4" stop-opacity="0" offset="100%"/></linearGradient><linearGradient x1="24.659%" y1="45.354%" x2="96.565%" y2="53.873%" id="aF"><stop stop-color="#5948BB" offset="0%"/><stop stop-color="#7D68CC" stop-opacity="0" offset="100%"/></linearGradient><linearGradient x1="24.659%" y1="45.669%" x2="94.151%" y2="54.579%" id="aG"><stop stop-color="#5948BB" offset="0%"/><stop stop-color="#5B48BB" stop-opacity="0" offset="100%"/></linearGradient><linearGradient x1="6.716%" y1="41.283%" x2="16.841%" y2="60.115%" id="aI"><stop stop-color="#EDCBFD" offset="0%"/><stop stop-color="#4720A5" offset="100%"/></linearGradient><linearGradient x1="50%" y1="34.094%" x2="46.543%" y2="55.785%" id="aJ"><stop stop-color="#8F77D6" offset="0%"/><stop stop-color="#6450C0" offset="100%"/></linearGradient><linearGradient x1="6.716%" y1="20.567%" x2="16.841%" y2="84.154%" id="aM"><stop stop-color="#EDCBFD" offset="0%"/><stop stop-color="#4720A5" offset="100%"/></linearGradient><linearGradient x1="51.553%" y1="9.974%" x2="50%" y2="65.873%" id="aN"><stop stop-color="#8D75D5" offset="0%"/><stop stop-color="#6450C0" offset="100%"/></linearGradient><linearGradient x1="6.224%" y1="46.424%" x2="9.974%" y2="52.949%" id="aQ"><stop stop-color="#EECCFE" offset="0%"/><stop stop-color="#987EDC" offset="100%"/></linearGradient><linearGradient x1="51.553%" y1="0%" x2="51.553%" y2="100%" id="aR"><stop stop-color="#B59DEB" offset="0%"/><stop stop-color="#5C48B8" offset="100%"/></linearGradient><linearGradient x1="82.312%" y1="60.167%" x2="0%" y2="60.167%" id="aU"><stop stop-color="#B396E8" stop-opacity="0" offset="0%"/><stop stop-color="#AD93E6" stop-opacity=".794" offset="100%"/></linearGradient><linearGradient x1="20.521%" y1="-7.91%" x2="34.58%" y2="21.961%" id="aW"><stop stop-color="#EDCBFE" offset="0%"/><stop stop-color="#987EDC" offset="100%"/></linearGradient><linearGradient x1="51.553%" y1="0%" x2="51.553%" y2="100%" id="aX"><stop stop-color="#B59DEB" offset="0%"/><stop stop-color="#5C48B8" offset="100%"/></linearGradient><linearGradient x1="20.521%" y1="-18.288%" x2="34.58%" y2="16.936%" id="ba"><stop stop-color="#EDCBFE" offset="0%"/><stop stop-color="#987EDC" offset="100%"/></linearGradient><linearGradient x1="51.553%" y1="0%" x2="51.553%" y2="100%" id="bb"><stop stop-color="#B59DEB" offset="0%"/><stop stop-color="#5C48B8" offset="100%"/></linearGradient><linearGradient x1="82.312%" y1="60.167%" x2="0%" y2="60.167%" id="be"><stop stop-color="#B396E8" stop-opacity="0" offset="0%"/><stop stop-color="#AD93E6" stop-opacity=".794" offset="100%"/></linearGradient><linearGradient x1="24.659%" y1="48.772%" x2="96.565%" y2="51.024%" id="bf"><stop stop-color="#5948BB" offset="0%"/><stop stop-color="#7D68CC" stop-opacity="0" offset="100%"/></linearGradient><linearGradient x1="24.659%" y1="48.786%" x2="96.565%" y2="51.012%" id="bg"><stop stop-color="#5948BB" offset="0%"/><stop stop-color="#7D68CC" stop-opacity="0" offset="100%"/></linearGradient><linearGradient x1="41.324%" y1="0%" x2="41.324%" y2="38.191%" id="bi"><stop stop-color="#ECC7FF" offset="0%"/><stop stop-color="#9F85E0" offset="100%"/></linearGradient><linearGradient x1="51.553%" y1="8.151%" x2="68.229%" y2="83.088%" id="bj"><stop stop-color="#B59DEB" offset="0%"/><stop stop-color="#7562C9" offset="100%"/></linearGradient><linearGradient x1="82.312%" y1="60.167%" x2="0%" y2="60.167%" id="bm"><stop stop-color="#B396E8" stop-opacity="0" offset="0%"/><stop stop-color="#AD93E6" stop-opacity=".794" offset="100%"/></linearGradient><linearGradient x1="41.324%" y1="0%" x2="41.324%" y2="38.191%" id="bo"><stop stop-color="#ECC7FF" offset="0%"/><stop stop-color="#9F85E0" offset="100%"/></linearGradient><linearGradient x1="51.553%" y1="0%" x2="51.553%" y2="100%" id="bp"><stop stop-color="#B59DEB" offset="0%"/><stop stop-color="#5C48B8" offset="100%"/></linearGradient><linearGradient x1="62.668%" y1="84.662%" x2="97.202%" y2="-14.158%" id="br"><stop stop-color="#9462C8" stop-opacity="0" offset="0%"/><stop stop-color="#9360C8" offset="100%"/></linearGradient><linearGradient x1="41.324%" y1="0%" x2="41.324%" y2="38.191%" id="bt"><stop stop-color="#ECC7FF" offset="0%"/><stop stop-color="#9F85E0" offset="100%"/></linearGradient><linearGradient x1="63.838%" y1="21.317%" x2="74.795%" y2="72.513%" id="bu"><stop stop-color="#9B86E2" offset="0%"/><stop stop-color="#755FCA" offset="100%"/></linearGradient><linearGradient x1="41.324%" y1="0%" x2="41.324%" y2="38.191%" id="bx"><stop stop-color="#ECC7FF" offset="0%"/><stop stop-color="#9F85E0" offset="100%"/></linearGradient><linearGradient x1="57.921%" y1="-46.604%" x2="70.088%" y2="76.73%" id="by"><stop stop-color="#AD95E6" offset="0%"/><stop stop-color="#7A67CC" offset="100%"/></linearGradient><linearGradient x1="82.312%" y1="60.167%" x2="0%" y2="60.167%" id="bB"><stop stop-color="#B396E8" stop-opacity="0" offset="0%"/><stop stop-color="#AD93E6" stop-opacity=".794" offset="100%"/></linearGradient><linearGradient x1="52.144%" y1="51.93%" x2="48.923%" y2="47.837%" id="bC"><stop stop-color="#E1D3F0" offset="0%"/><stop stop-color="#F1E2FF" offset="100%"/></linearGradient><linearGradient x1="85.373%" y1="63.663%" x2="5.733%" y2="34.089%" id="bD"><stop stop-color="#ED44B2" offset="0%"/><stop stop-color="#FA74CC" offset="100%"/></linearGradient><linearGradient x1="85.373%" y1="64.382%" x2="5.733%" y2="33.251%" id="bE"><stop stop-color="#ED44B2" offset="0%"/><stop stop-color="#FA74CC" offset="100%"/></linearGradient><linearGradient x1="-.006%" y1="49.998%" x2="100.007%" y2="49.998%" id="bF"><stop stop-color="#E2E7E8" offset="19.19%"/><stop stop-color="#FFF" offset="90.75%"/></linearGradient><linearGradient x1="36.501%" y1="30.285%" x2="50%" y2="70.821%" id="bG"><stop stop-color="#FFF" offset="0%"/><stop stop-color="#E5D6F4" offset="100%"/></linearGradient><linearGradient x1="100%" y1="50%" x2="0%" y2="50%" id="bT"><stop stop-color="#EAD5FF" offset="0%"/><stop stop-color="#CE9DF6" stop-opacity="0" offset="100%"/></linearGradient><path id="a" d="M.636 0h1919.001v674H.636z"/><path d="M225.408 4.735c2.413.045 4.866-6.05 11.48-4.32 31.897 8.342 118.806 4.711 118.806 4.711s45.007-.718 52.526 4.19c5.012 3.27 45.729 8.248 122.15 14.93 42.372-1.277 70.219-4.828 83.542-10.654 19.984-8.739 39.028-.235 42.692 2.438 3.664 2.673 50.501 7.966 59.674 10.212 9.173 2.247 53.206-9.057 61.211-12.168 5.337-2.074 13.846-2.074 25.529 0 34.137 6.224 53.141 10.28 57.011 12.168 5.805 2.833 37.977 19.404 41.301 19.404 2.216 0 10.089-1.303 23.618-3.91 13.304-1.578 30.114 2.6 50.428 12.535 1.78.87 3.698 1.708 5.731 2.513 8.025-3.968 15.632-7.847 18.176-9.089 3.87-1.888 22.874-5.944 57.012-12.168 11.682-2.074 20.192-2.074 25.529 0 8.004 3.111 52.037 14.414 61.21 12.168 9.173-2.246 56.01-7.539 59.675-10.212 3.664-2.673 22.707-11.177 42.692-2.438 13.323 5.826 41.17 9.377 83.541 10.654 76.422-6.682 117.139-11.66 122.15-14.93 7.52-4.908 52.527-4.19 52.527-4.19s37.93 13.258 114.09 29.113c12.246 2.55 38.98-6.027 53.206-3.387 13.748 2.551 18.994 16.72 42.737 20.123 7.109 1.02 31.64-8.592 43.113-7.065 10.683 1.422 44.327-9.629 66.063-2.798 9.84 3.092 17.9 13.001 24.629 15.274 6.728 2.272 15.694 2.17 22.756.728 25.755-5.258 32.913-2.365 38.317-1.52 8.37 1.311 36.47-8.734 61.71-10.93 12.375-1.076 31.734-.438 58.079 1.914 30.848 47.147 28.054 71.264-8.382 72.352-297.55 8.88-167.044 9.664-203.107 14.193-48.236 6.057-168.287.067-360.154-17.97H139.837l-.005-2.173c-44.853 1.644-77.303 1.208-97.35-1.31-48.235-6.057-55.395-28.022-21.48-65.894 3.762-15.35 8.923-24.055 15.483-26.117 21.736-6.83 55.38 4.22 66.063 2.798 11.472-1.527 36.004 8.084 43.113 7.065 23.742-3.402 28.988-17.572 42.737-20.123 12.08-2.241 23.42-26.37 37.01-26.117z" id="d"/><path d="M2242.993 509V27.256l-832.72 2.852-64.34.271c-397.317 1.613-601.456 1.269-623.458.877C670.251 30.326 550.967 0 487.982 0 445.992 0 283.332 10.419 0 31.256V509h2242.993z" id="R"/><path d="M55.5 34.156c2.217-2.735 3.46-6.297 3.197-9.692-.269-3.47-1.936-6.753-4.574-9.05-.562-.49-1.14-.91-1.735-1.276.02-.335.02-.67-.006-1.001-.363-4.69-4.374-7.517-8.87-7.517-.542 0-1.067.068-1.573.192a12.526 12.526 0 00-2.354-2.748C36.898.725 33.785 0 30.3 0c-3.832 0-7.148 2.182-9.247 5.217-1.145-.238-2.343-.336-3.59-.336-6.203 0-10.996 5.967-11.13 11.764-.154.093-.308.11-.458.209l-.007-.071A15.923 15.923 0 003.31 19.08C.958 21.724-.234 25.306.038 28.818c.264 3.402 1.898 6.64 4.485 8.893l.002.011c.974.711 1.859 1.29 2.808 1.87l.054.037.016.009.244.15.084.038c-.006.36 0 .72.028 1.077.258 3.333 1.86 6.489 4.395 8.696 2.781 2.422 6.003 3.173 9.612 3.173 1.782 0 3.457-.456 4.958-1.243 2.17 1.219 4.574 1.637 7.195 1.637 2.144 0 4.123-.694 5.813-1.84 1.858.795 3.876 1.082 6.042 1.082 6.725 0 11.83-6.863 11.348-13.101a12.108 12.108 0 00-1.622-5.151" id="ae"/><path d="M1173.748 191.064c-.404-1.546-1.611-3.495-3.44-5.647-2.073-2.45-4.955-5.17-8.313-7.827h-.01c-3.868-3.056-8.39-6.05-13.09-8.5a77.114 77.114 0 00-3.037-1.502c-5.715-2.643-11.575-4.376-16.733-4.376h-3.767l-2.761-2.763h-15.637l-2.405 2.763h-40.794l-1.948-1.95h-14.765l-1.704 1.95h-69.92l-1.939-1.95h-14.774l-1.694 1.95h-85.268l-1.943-1.945h-14.77l-1.694 1.945H699.905l.005 34.571H854.656v-1.882c0-1.213.986-2.204 2.203-2.204h13.938c1.217 0 2.199.991 2.199 2.204v1.882h50.223v-1.887c0-1.208.986-2.195 2.208-2.195h13.943c1.217 0 2.198.987 2.198 2.195v1.887h178.753v-1.887c0-1.208.981-2.195 2.203-2.195h13.933c1.218 0 2.204.987 2.204 2.195v1.887h26.548c-.005 0 10.276 0 8.54-6.72z" id="ak"/><path d="M456.461 17.553h-.01c-3.868-3.056-8.39-6.05-13.09-8.5h-26.038c-2.18 0-3.724.731-2.454 2.517.043.063.091.13.144.193a74.524 74.524 0 005.427 6.305 61.133 61.133 0 003.026 2.956c4.778 4.337 12.615 4.356 12.615 4.356h28.689c-2.069-2.455-4.95-5.174-8.309-7.827z" id="aq"/><path d="M312.806 13.717a1 1 0 01.994.883l.006.117v7.656a1 1 0 01-.883.994l-.117.006H300.33a1 1 0 01-.993-.883l-.007-.117v-7.656a1 1 0 01.884-.994l.116-.006h12.477zm-19.303 0a1 1 0 01.994.883l.006.117v7.656a1 1 0 01-.883.994l-.117.006h-12.477a1 1 0 01-.993-.883l-.007-.117v-7.656a1 1 0 01.883-.994l.117-.006h12.477zm-19.303 0a1 1 0 01.994.883l.006.117v7.656a1 1 0 01-.883.994l-.117.006h-12.477a1 1 0 01-.993-.883l-.007-.117v-7.656a1 1 0 01.883-.994l.117-.006H274.2zm-19.303 0a1 1 0 01.994.883l.006.117v7.656a1 1 0 01-.883.994l-.117.006H242.42a1 1 0 01-.993-.883l-.007-.117v-7.656a1 1 0 01.883-.994l.117-.006h12.477zm-19.303 0a1 1 0 01.993.883l.007.117v7.656a1 1 0 01-.883.994l-.117.006h-12.477a1 1 0 01-.993-.883l-.007-.117v-7.656a1 1 0 01.883-.994l.117-.006h12.477zm154.425 0a1 1 0 01.993.883l.007.117v7.656a1 1 0 01-.884.994l-.116.006H377.54a1 1 0 01-.993-.883l-.007-.117v-7.656a1 1 0 01.884-.994l.116-.006h12.478zm-19.303 0a1 1 0 01.993.883l.007.117v7.656a1 1 0 01-.884.994l-.116.006h-12.478a1 1 0 01-.993-.883l-.007-.117v-7.656a1 1 0 01.884-.994l.116-.006h12.478zm-19.303 0a1 1 0 01.993.883l.007.117v7.656a1 1 0 01-.884.994l-.116.006h-12.478a1 1 0 01-.993-.883l-.007-.117v-7.656a1 1 0 01.884-.994l.116-.006h12.478zm-19.303 0a1 1 0 01.993.883l.007.117v7.656a1 1 0 01-.884.994l-.116.006h-12.478a1 1 0 01-.993-.883l-.007-.117v-7.656a1 1 0 01.884-.994l.116-.006h12.478z" id="au"/><path d="M32.597 0c4.537 0 8.587.947 12.083 4.002a16.4 16.4 0 014.595 6.72c3.971.261 7.558 1.382 10.715 4.14.103.09.205.181.306.274 2.041-3.975 5.896-7.034 10.455-7.034 1.846 0 3.59.204 5.226.733.105-.127.21-.255.319-.38 2.22-2.532 4.903-4.366 8.052-5.502l4.858-1.036c3.505-.25 6.835.406 9.992 1.968l3.187 2.168c1.858-1.726 4.224-2.835 6.846-2.835 4.81 0 9.233 2.303 11.405 6.322 2.11.105 4.14.635 6.085 1.598l3.31 2.252a15.758 15.758 0 015.184 10.505c.2 2.65-.29 5.315-1.373 7.71a15.385 15.385 0 013.16 8.205c.589 7.773-5.623 16.325-13.805 16.325-.247 0-.492-.003-.736-.01-1.866 4.077-5.698 7.301-10.275 7.301-3.181 0-6.045-.628-8.556-2.585l-3.658-.217c-1.893 1.466-4.172 2.372-6.661 2.372-3.197 0-6.091-.601-8.647-2.447l-.461.098c-3.889.278-7.584-.45-11.085-2.183l-3.081-2.095c-2.7 2.979-6.406 4.977-10.583 4.977-3.304 0-6.348-.507-9.11-1.96a20.278 20.278 0 01-5.471 2.925l-5.084 1.062a20.307 20.307 0 01-10.458-2.018l-4.313-2.874a20.17 20.17 0 01-.662-.608c-.68.349-1.388.657-2.127.918l-4.238.885a16.924 16.924 0 01-8.717-1.682c-1.2-.798-2.398-1.597-3.596-2.396C2.43 52.76.378 48.705.048 44.42A16.601 16.601 0 014.157 32.2a16.744 16.744 0 016.276-4.412c.732-4.348 3.354-8.517 7.047-10.97C17.231 8.68 23.892 0 32.597 0z" id="aH"/><path d="M74.538 43.872c-.324-4.205-2.338-8.185-5.525-10.969a15.299 15.299 0 00-3.472-2.297c.269-1.4.362-2.82.255-4.217-.341-4.42-2.457-8.601-5.806-11.528-3.157-2.757-6.744-3.878-10.715-4.14a16.4 16.4 0 00-4.595-6.72C41.184.948 37.134 0 32.597 0 23.892 0 17.231 8.68 17.48 16.818c-3.693 2.453-6.315 6.622-7.047 10.97A16.744 16.744 0 004.157 32.2 16.601 16.601 0 00.048 44.42c.33 4.285 2.382 8.34 5.63 11.178 1.198.8 2.397 1.598 3.596 2.396a16.924 16.924 0 008.717 1.682l4.238-.885c.739-.261 1.447-.57 2.127-.918.216.207.436.41.662.608l4.313 2.874a20.307 20.307 0 0010.458 2.018l5.084-1.062a20.278 20.278 0 005.472-2.924c2.76 1.452 5.805 1.96 9.109 1.96 8.94 0 15.726-9.155 15.084-17.475" id="aL"/><path d="M32.597 0c4.537 0 8.587.947 12.083 4.002a16.4 16.4 0 014.595 6.72c3.971.261 7.558 1.382 10.715 4.14.103.09.205.181.306.274 2.041-3.975 5.896-7.034 10.455-7.034 1.846 0 3.59.204 5.226.733.105-.127.21-.255.319-.38 2.22-2.532 4.903-4.366 8.052-5.502l4.858-1.036c3.505-.25 6.835.406 9.992 1.968l3.187 2.168c1.858-1.726 4.224-2.835 6.846-2.835 4.81 0 9.233 2.303 11.405 6.322 2.11.105 4.14.635 6.085 1.598l3.31 2.252a15.758 15.758 0 015.184 10.505c.2 2.65-.29 5.315-1.373 7.71a15.385 15.385 0 013.16 8.205c.589 7.773-5.623 16.325-13.805 16.325-.247 0-.492-.003-.736-.01-1.866 4.077-5.698 7.301-10.275 7.301-3.181 0-6.045-.628-8.556-2.585l-3.658-.217c-1.893 1.466-4.172 2.372-6.661 2.372-3.197 0-6.091-.601-8.647-2.447l-.461.098c-3.889.278-7.584-.45-11.085-2.183l-3.081-2.095c-2.7 2.979-6.406 4.977-10.583 4.977-3.304 0-6.348-.507-9.11-1.96a20.278 20.278 0 01-5.471 2.925l-5.084 1.062a20.307 20.307 0 01-10.458-2.018l-4.313-2.874a20.17 20.17 0 01-.662-.608c-.68.349-1.388.657-2.127.918l-4.238.885a16.924 16.924 0 01-8.717-1.682c-1.2-.798-2.398-1.597-3.596-2.396C2.43 52.76.378 48.705.048 44.42A16.601 16.601 0 014.157 32.2a16.744 16.744 0 016.276-4.412c.732-4.348 3.354-8.517 7.047-10.97C17.231 8.68 23.892 0 32.597 0z" id="aP"/><path d="M32.597 0c4.537 0 8.587.947 12.083 4.002a16.4 16.4 0 014.595 6.72c3.971.261 7.558 1.382 10.715 4.14.103.09.205.181.306.274 2.041-3.975 5.896-7.034 10.455-7.034 1.846 0 3.59.204 5.226.733.105-.127.21-.255.319-.38 2.22-2.532 4.903-4.366 8.052-5.502l4.858-1.036c3.505-.25 6.835.406 9.992 1.968l3.187 2.168c1.858-1.726 4.224-2.835 6.846-2.835 4.81 0 9.233 2.303 11.405 6.322 2.11.105 4.14.635 6.085 1.598l3.31 2.252a15.758 15.758 0 015.184 10.505c.2 2.65-.29 5.315-1.373 7.71a15.385 15.385 0 013.16 8.205c.589 7.773-5.623 16.325-13.805 16.325-.247 0-.492-.003-.736-.01-1.866 4.077-5.698 7.301-10.275 7.301-3.181 0-6.045-.628-8.556-2.585l-3.658-.217c-1.893 1.466-4.172 2.372-6.661 2.372-3.197 0-6.091-.601-8.647-2.447l-.461.098c-3.889.278-7.584-.45-11.085-2.183l-3.081-2.095c-2.7 2.979-6.406 4.977-10.583 4.977-3.304 0-6.348-.507-9.11-1.96a20.278 20.278 0 01-5.471 2.925l-5.084 1.062a20.307 20.307 0 01-10.458-2.018l-4.313-2.874a20.17 20.17 0 01-.662-.608c-.68.349-1.388.657-2.127.918l-4.238.885a16.924 16.924 0 01-8.717-1.682c-1.2-.798-2.398-1.597-3.596-2.396C2.43 52.76.378 48.705.048 44.42A16.601 16.601 0 014.157 32.2a16.744 16.744 0 016.276-4.412c.732-4.348 3.354-8.517 7.047-10.97C17.231 8.68 23.892 0 32.597 0z" id="aT"/><path d="M69.545 44.225c-.277-3.625-2.021-7.055-4.786-9.453a13.249 13.249 0 00-3.012-1.978c.234-1.207.317-2.431.225-3.636-.291-3.81-2.124-7.415-5.029-9.935-2.738-2.375-5.851-3.337-9.299-3.559a14.094 14.094 0 00-3.983-5.79c-3.032-2.63-6.548-3.443-10.487-3.438-7.558.009-13.35 7.5-13.143 14.518-3.21 2.12-5.49 5.718-6.13 9.467a14.587 14.587 0 00-5.454 3.812c-2.57 2.875-3.873 6.727-3.58 10.542.282 3.695 2.06 7.19 4.877 9.634l3.119 2.062a14.762 14.762 0 007.567 1.441l3.68-.767a15.192 15.192 0 001.849-.794c.187.179.378.353.574.523l3.742 2.474a17.713 17.713 0 009.078 1.73l4.415-.921a17.699 17.699 0 004.754-2.527c2.396 1.249 5.039 1.683 7.907 1.68 7.763-.01 13.665-7.91 13.116-15.085" id="aV"/><path d="M52.857 32.957c2.111-2.639 3.295-6.075 3.045-9.351a13.051 13.051 0 00-4.357-8.734 12.318 12.318 0 00-1.652-1.23 7.2 7.2 0 00-.005-.966c-.346-4.525-4.166-7.254-8.448-7.254a6.19 6.19 0 00-1.498.186A12.045 12.045 0 0037.7 2.957C35.141.7 32.177 0 28.856 0c-3.65 0-6.807 2.105-8.806 5.034-1.09-.23-2.231-.324-3.42-.324-5.907 0-10.472 5.758-10.6 11.351-.146.09-.293.106-.435.202l-.008-.07c-.888.648-1.699 1.389-2.433 2.217C.912 20.961-.223 24.418.036 27.807a12.835 12.835 0 004.272 8.58l.002.012c.928.686 1.77 1.243 2.674 1.803l.051.037.016.008.232.145.08.036c-.006.347 0 .695.026 1.04a12.54 12.54 0 004.187 8.391c2.648 2.337 5.716 3.061 9.154 3.061 1.697 0 3.292-.44 4.721-1.2 2.066 1.177 4.357 1.58 6.853 1.58 2.042 0 3.927-.669 5.536-1.774 1.77.766 3.691 1.043 5.754 1.043 6.405 0 11.268-6.622 10.808-12.641a11.793 11.793 0 00-1.545-4.97" id="aZ"/><path d="M52.857 32.957c2.111-2.639 3.295-6.075 3.045-9.351a13.051 13.051 0 00-4.357-8.734 12.318 12.318 0 00-1.652-1.23 7.2 7.2 0 00-.005-.966c-.346-4.525-4.166-7.254-8.448-7.254a6.19 6.19 0 00-1.498.186A12.045 12.045 0 0037.7 2.957C35.141.7 32.177 0 28.856 0c-3.65 0-6.807 2.105-8.806 5.034-1.09-.23-2.231-.324-3.42-.324-5.907 0-10.472 5.758-10.6 11.351-.146.09-.293.106-.435.202l-.008-.07c-.888.648-1.699 1.389-2.433 2.217C.912 20.961-.223 24.418.036 27.807a12.835 12.835 0 004.272 8.58l.002.012c.928.686 1.77 1.243 2.674 1.803l.051.037.016.008.232.145.08.036c-.006.347 0 .695.026 1.04a12.54 12.54 0 004.187 8.391c2.648 2.337 5.716 3.061 9.154 3.061 1.697 0 3.292-.44 4.721-1.2 2.066 1.177 4.357 1.58 6.853 1.58 2.042 0 3.927-.669 5.536-1.774 1.77.766 3.691 1.043 5.754 1.043 6.405 0 11.268-6.622 10.808-12.641a11.793 11.793 0 00-1.545-4.97" id="bd"/><path d="M112.739 66.453c-.49-6.369-3.536-12.397-8.357-16.615a23.137 23.137 0 00-5.25-3.48c.405-2.12.547-4.27.384-6.387-.515-6.693-3.716-13.027-8.781-17.46-4.774-4.178-10.2-5.875-16.206-6.271a24.843 24.843 0 00-6.951-10.179C62.29 1.435 56.165 0 49.303 0 36.137 0 26.063 13.147 26.44 25.474c-5.587 3.716-9.552 10.031-10.66 16.616a25.326 25.326 0 00-9.492 6.684C1.818 53.818-.445 60.582.073 67.284c.5 6.49 3.603 12.632 8.515 16.93 1.812 1.211 3.625 2.42 5.438 3.63 4.165 2.023 8.56 2.873 13.185 2.547l6.41-1.34a26.28 26.28 0 003.218-1.39c.327.314.66.621 1 .92l6.524 4.354c4.997 2.427 10.27 3.446 15.818 3.056l7.689-1.608a30.656 30.656 0 008.276-4.43c4.176 2.2 8.78 2.968 13.777 2.968 13.522 0 23.787-13.865 22.816-26.468" id="bh"/><path d="M112.739 66.453c-.49-6.369-3.536-12.397-8.357-16.615a23.137 23.137 0 00-5.25-3.48c.405-2.12.547-4.27.384-6.387-.515-6.693-3.716-13.027-8.781-17.46-4.774-4.178-10.2-5.875-16.206-6.271a24.843 24.843 0 00-6.951-10.179C62.29 1.435 56.165 0 49.303 0 36.137 0 26.063 13.147 26.44 25.474c-5.587 3.716-9.552 10.031-10.66 16.616a25.326 25.326 0 00-9.492 6.684C1.818 53.818-.445 60.582.073 67.284c.5 6.49 3.603 12.632 8.515 16.93 1.812 1.211 3.625 2.42 5.438 3.63 4.165 2.023 8.56 2.873 13.185 2.547l6.41-1.34a26.28 26.28 0 003.218-1.39c.327.314.66.621 1 .92l6.524 4.354c4.997 2.427 10.27 3.446 15.818 3.056l7.689-1.608a30.656 30.656 0 008.276-4.43c4.176 2.2 8.78 2.968 13.777 2.968 13.522 0 23.787-13.865 22.816-26.468" id="bl"/><path d="M103.04 39.652a20.988 20.988 0 001.847-10.28c-.409-5.368-2.95-10.45-6.973-14.006l-4.453-3.002a20.724 20.724 0 00-8.186-2.132c-2.922-5.358-8.871-8.428-15.343-8.428-3.526 0-6.71 1.478-9.21 3.78-1.428-.964-2.858-1.928-4.287-2.89C52.19.61 47.71-.266 42.994.068l-6.535 1.38c-4.236 1.516-12.161 4.157-12.303 4.328-2.201-.706-7.88-.833-10.364-.833-3.234 0-8.538 3.996-10.363 6.356C-.14 15.913-.021 21.554.433 27.506c.338 4.422 3.996 8.316 7.242 11.313-1.699 4.134-2.448 8.655-2.105 13.154.566 7.416 4.076 14.435 9.631 19.345l6.15 4.147c4.711 2.311 9.682 3.282 14.912 2.91l.62-.13c3.439 2.46 7.332 3.263 11.633 3.263 3.348 0 6.414-1.208 8.96-3.163l4.922.289c3.378 2.609 7.23 3.447 11.51 3.447 6.157 0 11.312-4.299 13.822-9.735.328.009.658.013.99.013 11.006 0 19.363-11.402 18.571-21.766-.303-3.988-1.815-7.81-4.251-10.94z" id="bn"/><path d="M86.057 54.659c-.342-4.482-2.499-8.721-5.92-11.685a16.387 16.387 0 00-3.726-2.443c.29-1.493.393-3.007.28-4.496-.36-4.71-2.627-9.165-6.221-12.28-3.387-2.935-7.24-4.124-11.506-4.397a17.412 17.412 0 00-4.928-7.156C50.285 8.95 45.935 7.947 41.06 7.954c-9.353.013-16.522 9.276-16.267 17.95-3.973 2.622-6.795 7.07-7.589 11.706a18.062 18.062 0 00-6.75 4.713c-3.18 3.554-4.793 8.316-4.433 13.032.349 4.567 2.547 8.887 6.033 11.908l3.86 2.548c2.956 1.42 6.077 2.014 9.363 1.78l4.554-.95c.795-.279 1.556-.609 2.288-.98.232.22.468.435.71.645l4.63 3.058c3.547 1.703 7.291 2.415 11.233 2.135l5.464-1.14a21.92 21.92 0 005.884-3.125c2.964 1.544 6.234 2.08 9.784 2.075 9.605-.013 16.91-9.781 16.233-18.65" id="bs"/><path d="M65.19 40.747c2.604-3.263 4.064-7.512 3.756-11.562a16.15 16.15 0 00-5.373-10.797 15.195 15.195 0 00-2.038-1.521c.023-.4.024-.799-.007-1.195-.426-5.595-5.137-8.968-10.42-8.968-.635 0-1.252.081-1.846.23a14.883 14.883 0 00-2.765-3.278C43.34.865 39.685 0 35.59 0c-4.502 0-8.397 2.603-10.862 6.224-1.345-.285-2.752-.4-4.217-.4-7.286 0-12.916 7.118-13.074 14.033-.18.111-.361.13-.537.25l-.009-.086a18.806 18.806 0 00-3.002 2.741C1.125 25.916-.274 30.19.045 34.38c.31 4.058 2.229 7.921 5.268 10.608l.003.014a46.881 46.881 0 003.297 2.23l.064.045.02.01c.095.06.188.12.285.18l.1.044c-.008.43 0 .86.032 1.285a15.517 15.517 0 005.163 10.375c3.266 2.89 7.05 3.785 11.29 3.785 2.093 0 4.06-.544 5.823-1.483 2.548 1.454 5.373 1.953 8.451 1.953 2.519 0 4.843-.827 6.829-2.194 2.182.947 4.552 1.29 7.096 1.29 7.9 0 13.897-8.188 13.33-15.63a14.606 14.606 0 00-1.905-6.145" id="bw"/><path d="M65.19 40.747c2.604-3.263 4.064-7.512 3.756-11.562a16.15 16.15 0 00-5.373-10.797 15.195 15.195 0 00-2.038-1.521c.023-.4.024-.799-.007-1.195-.426-5.595-5.137-8.968-10.42-8.968-.635 0-1.252.081-1.846.23a14.883 14.883 0 00-2.765-3.278C43.34.865 39.685 0 35.59 0c-4.502 0-8.397 2.603-10.862 6.224-1.345-.285-2.752-.4-4.217-.4-7.286 0-12.916 7.118-13.074 14.033-.18.111-.361.13-.537.25l-.009-.086a18.806 18.806 0 00-3.002 2.741C1.125 25.916-.274 30.19.045 34.38c.31 4.058 2.229 7.921 5.268 10.608l.003.014a46.881 46.881 0 003.297 2.23l.064.045.02.01c.095.06.188.12.285.18l.1.044c-.008.43 0 .86.032 1.285a15.517 15.517 0 005.163 10.375c3.266 2.89 7.05 3.785 11.29 3.785 2.093 0 4.06-.544 5.823-1.483 2.548 1.454 5.373 1.953 8.451 1.953 2.519 0 4.843-.827 6.829-2.194 2.182.947 4.552 1.29 7.096 1.29 7.9 0 13.897-8.188 13.33-15.63a14.606 14.606 0 00-1.905-6.145" id="bA"/><filter x="0%" y="0%" width="100%" height="100%" filterUnits="objectBoundingBox" id="ab"><feGaussianBlur in="SourceGraphic"/></filter><filter x="-64.4%" y="-536.1%" width="228.7%" height="1172.1%" filterUnits="objectBoundingBox" id="bH"><feGaussianBlur stdDeviation="5" in="SourceGraphic"/></filter><filter x="-64.4%" y="-536.1%" width="228.7%" height="1172.1%" filterUnits="objectBoundingBox" id="bI"><feGaussianBlur stdDeviation="5" in="SourceGraphic"/></filter><filter x="0%" y="0%" width="100%" height="100%" filterUnits="objectBoundingBox" id="bJ"><feGaussianBlur in="SourceGraphic"/></filter><filter x="0%" y="0%" width="100%" height="100%" filterUnits="objectBoundingBox" id="bK"><feGaussianBlur in="SourceGraphic"/></filter><filter x="-128.7%" y="-214.4%" width="357.4%" height="528.8%" filterUnits="objectBoundingBox" id="bL"><feGaussianBlur stdDeviation="2" in="SourceGraphic"/></filter><filter x="-160.9%" y="-214.4%" width="421.8%" height="528.8%" filterUnits="objectBoundingBox" id="bM"><feGaussianBlur stdDeviation="2" in="SourceGraphic"/></filter><filter x="-128.7%" y="-214.4%" width="357.4%" height="528.8%" filterUnits="objectBoundingBox" id="bN"><feGaussianBlur stdDeviation="2" in="SourceGraphic"/></filter><filter x="-160.9%" y="-214.4%" width="421.8%" height="528.8%" filterUnits="objectBoundingBox" id="bO"><feGaussianBlur stdDeviation="2" in="SourceGraphic"/></filter><filter x="-128.7%" y="-214.4%" width="357.4%" height="528.8%" filterUnits="objectBoundingBox" id="bP"><feGaussianBlur stdDeviation="2" in="SourceGraphic"/></filter><filter x="-160.9%" y="-214.4%" width="421.8%" height="528.8%" filterUnits="objectBoundingBox" id="bQ"><feGaussianBlur stdDeviation="2" in="SourceGraphic"/></filter><filter x="-64.4%" y="-107.2%" width="228.7%" height="314.4%" filterUnits="objectBoundingBox" id="bR"><feGaussianBlur stdDeviation="1" in="SourceGraphic"/></filter><filter x="-80.5%" y="-107.2%" width="260.9%" height="314.4%" filterUnits="objectBoundingBox" id="bS"><feGaussianBlur stdDeviation="1" in="SourceGraphic"/></filter></defs><g transform="translate(.363)" fill="none" fill-rule="evenodd"><mask id="c" fill="#fff"><use xlink:href="#a"/></mask><use fill="#D8D8D8" xlink:href="#a"/><path fill="url(#b)" mask="url(#c)" transform="matrix(-1 0 0 1 1920.435 0)" d="M.717 0h1919.001v674H.717z"/><g mask="url(#c)"><g opacity=".6" transform="translate(-82.336 72)"><use fill="url(#e)" xlink:href="#d"/><use fill="url(#f)" xlink:href="#d"/></g></g><g mask="url(#c)"><path fill="url(#g)" d="M0 27.727h25.981v142.102H0z" transform="translate(1400.49 62.695)"/><path d="M3.464 150.767v18.196H1.732v-18.196h1.732zm6.928 0v18.196H8.66v-18.196h1.732zm6.928 0v18.196h-1.732v-18.196h1.732zm6.929 0v18.196h-1.732v-18.196h1.732zm-3.464-8.665v18.196h-1.732v-18.196h1.732zm-6.929 0v18.196h-1.732v-18.196h1.732zm-6.928 0v18.196H5.196v-18.196h1.732zm3.464-11.264v18.196H8.66v-18.196h1.732zm6.928 0v18.196h-1.732v-18.196h1.732zm6.929 0v18.196h-1.732v-18.196h1.732zm-20.785 0v18.196H1.732v-18.196h1.732zm17.32-8.665v18.196h-1.731v-18.196h1.732zm-6.928 0v18.196h-1.732v-18.196h1.732zm-6.928 0v18.196H5.196v-18.196h1.732zm3.464-11.264v18.196H8.66v-18.196h1.732zm6.928 0v18.196h-1.732v-18.196h1.732zm6.929 0v18.196h-1.732v-18.196h1.732zm-20.785 0v18.196H1.732v-18.196h1.732zm17.32-8.665v18.196h-1.731v-18.196h1.732zm-13.856 0v18.196H5.196v-18.196h1.732zm6.928 0v18.196h-1.732v-18.196h1.732zM10.392 90.98v18.196H8.66V90.98h1.732zm6.928 0v18.196h-1.732V90.98h1.732zm6.929 0v18.196h-1.732V90.98h1.732zm-20.785 0v18.196H1.732V90.98h1.732zm10.392-8.665v18.196h-1.732V82.315h1.732zm-6.928 0v18.196H5.196V82.315h1.732zm13.857 0v18.196h-1.732V82.315h1.732zM17.32 71.051v18.196h-1.732V71.051h1.732zm6.929 0v18.196h-1.732V71.051h1.732zm-20.785 0v18.196H1.732V71.051h1.732zm6.928 0v18.196H8.66V71.051h1.732zm-3.464-8.665v18.196H5.196V62.386h1.732zm13.857 0v18.196h-1.732V62.386h1.732zm-6.929 0v18.196h-1.732V62.386h1.732zM3.464 51.122v18.196H1.732V51.122h1.732zm6.928 0v18.196H8.66V51.122h1.732zm6.928 0v18.196h-1.732V51.122h1.732zm6.929 0v18.196h-1.732V51.122h1.732zm-17.32-8.665v18.196H5.195V42.457h1.732zm6.927 0v18.196h-1.732V42.457h1.732zm6.929 0v18.196h-1.732V42.457h1.732zM3.465 31.193V49.39H1.731V31.193h1.732zm6.927 0V49.39H8.66V31.193h1.732zm6.928 0V49.39h-1.732V31.193h1.732zm6.929 0V49.39h-1.732V31.193h1.732zm-17.32 0v9.531H5.195v-9.53h1.732zm6.927 0v9.531h-1.732v-9.53h1.732zm6.929 0v9.531h-1.732v-9.53h1.732z" fill="url(#h)" fill-rule="nonzero" transform="translate(1400.49 62.695)"/><path fill="url(#i)" d="M25.98 5.199h25.981v22.528H0z" transform="translate(1400.49 62.695)"/><path fill="url(#j)" d="M15.588 0H25.98v19.062H15.588z" transform="translate(1400.49 62.695)"/><path fill="url(#k)" d="M25.98 0l12.125.866v7.799L25.981 19.062z" transform="translate(1400.49 62.695)"/><path fill="url(#l)" d="M25.98 27.727L51.962 5.2v164.63h-25.98z" transform="translate(1400.49 62.695)"/></g><g mask="url(#c)"><path fill="url(#m)" d="M0 37.258h22.517v93.579H0z" transform="translate(1350.26 71.49)"/><path d="M17.32 0h2.599v32.926h3.464v4.332H11.258v-4.332h6.062V0z" fill="url(#n)" fill-rule="nonzero" transform="translate(1350.26 71.49)"/><path fill="url(#o)" d="M23.383 32.926h7.794v4.332h-7.794z" transform="translate(1350.26 71.49)"/><path fill="url(#p)" d="M22.517 37.258h12.99v93.579h-12.99z" transform="translate(1350.26 71.49)"/><path d="M22.517 127.372v1.733H0v-1.733h22.517zm0-4.332v1.732H0v-1.732h22.517zm0-4.333v1.733H0v-1.733h22.517zm0-6.932v1.733H0v-1.733h22.517zm0-4.332v1.733H0v-1.733h22.517zm0-4.332v1.733H0v-1.733h22.517zm0-6.932v1.733H0v-1.733h22.517zm0-4.333v1.733H0v-1.733h22.517zm0-4.332v1.733H0v-1.733h22.517zm0-6.932v1.733H0v-1.733h22.517zm0-4.332v1.733H0V76.25h22.517zm0-4.333v1.733H0v-1.733h22.517zm0-6.931v1.733H0v-1.733h22.517zm0-4.333v1.733H0v-1.733h22.517zm0-4.332v1.733H0V56.32h22.517zm0-6.932v1.733H0V49.39h22.517zm0-4.332v1.733H0v-1.733h22.517zm0-4.333v1.733H0v-1.733h22.517z" fill="url(#q)" fill-rule="nonzero" transform="translate(1350.26 71.49)"/></g><g mask="url(#c)"><path fill="url(#r)" d="M0 20.795h41.569v110.042H0z" transform="translate(1444.657 83.49)"/><path d="M28.579 0h2.598v14.73h4.33v6.065H19.919V14.73h8.66V0z" fill="url(#s)" fill-rule="nonzero" transform="translate(1444.657 83.49)"/><path fill="url(#t)" d="M35.507 14.73h8.66v6.065h-8.66z" transform="translate(1444.657 83.49)"/><path fill="url(#u)" fill-rule="nonzero" d="M40.703 17.33h7.794v3.466h-7.794z" transform="translate(1444.657 83.49)"/><path fill="url(#v)" d="M48.497 17.33h5.196v3.466h-5.196z" transform="translate(1444.657 83.49)"/><path d="M25.115 122.173v2.6H0v-2.6h25.115zm16.454 0v2.6h-6.928v-2.6h6.928zM8.66 116.108v2.6H0v-2.6h8.66zm32.91 0v2.6H18.186v-2.6h23.382zm0-6.066v2.6H34.64v-2.6h6.928zm-16.455 0v2.6H0v-2.6h25.115zm16.454-5.198v2.599H18.187v-2.6h23.382zm-32.909 0v2.599H0v-2.6h8.66zm32.91-5.2v2.6H34.64v-2.6h6.928zm-16.455 0v2.6H0v-2.6h25.115zM8.66 93.58v2.6H0v-2.6h8.66zm32.91 0v2.6H18.186v-2.6h23.382zm0-5.198v2.599H34.64v-2.6h6.928zm-16.455 0v2.599H0v-2.6h25.115zM8.66 82.315v2.6H0v-2.6h8.66zm32.91 0v2.6H18.186v-2.6h23.382zm0-6.065v2.6H34.64v-2.6h6.928zm-16.455 0v2.6H0v-2.6h25.115zm16.454-5.199v2.6H18.187v-2.6h23.382zm-32.909 0v2.6H0v-2.6h8.66zm32.91-5.199v2.6H34.64v-2.6h6.928zm-16.455 0v2.6H0v-2.6h25.115zM8.66 60.653v2.6H0v-2.6h8.66zm32.91 0v2.6H18.186v-2.6h23.382zM8.66 48.523v2.6H0v-2.6h8.66zm32.91 0v2.6H18.186v-2.6h23.382zm0-5.2v2.6H34.64v-2.6h6.928zm-16.455 0v2.6H0v-2.6h25.115zM8.66 37.259v2.6H0v-2.6h8.66zm32.91 0v2.6H18.186v-2.6h23.382zm0-6.065v2.6H34.64v-2.6h6.928zm-16.455 0v2.6H0v-2.6h25.115zM8.66 25.994v2.6H0v-2.6h8.66zm32.91 0v2.6H18.186v-2.6h23.382z" fill="url(#w)" fill-rule="nonzero" transform="translate(1444.657 83.49)"/><path fill="url(#x)" d="M41.569 20.795h20.785v110.042H41.569z" transform="translate(1444.657 83.49)"/><path d="M1498.783 205.664v2.599h-12.557v-2.6h12.557zm8.227 0v2.599h-3.464v-2.6h3.464zm-16.454-6.066v2.6h-4.33v-2.6h4.33zm16.454 0v2.6h-11.69v-2.6h11.69zm0-6.065v2.6h-3.464v-2.6h3.464zm-8.227 0v2.6h-12.557v-2.6h12.557zm8.227-5.199v2.6h-11.69v-2.6h11.69zm-16.454 0v2.6h-4.33v-2.6h4.33zm16.454-5.199v2.6h-3.464v-2.6h3.464zm-8.227 0v2.6h-12.557v-2.6h12.557zm-8.227-6.065v2.6h-4.33v-2.6h4.33zm16.454 0v2.6h-11.69v-2.6h11.69zm0-5.199v2.6h-3.464v-2.6h3.464zm-8.227 0v2.6h-12.557v-2.6h12.557zm-8.227-6.065v2.6h-4.33v-2.6h4.33zm16.454 0v2.6h-11.69v-2.6h11.69zm0-6.066v2.6h-3.464v-2.6h3.464zm-8.227 0v2.6h-12.557v-2.6h12.557zm8.227-5.199v2.6h-11.69v-2.6h11.69zm-16.454 0v2.6h-4.33v-2.6h4.33zm16.454-5.198v2.599h-3.464v-2.6h3.464zm-8.227 0v2.599h-12.557v-2.6h12.557zm-8.227-5.2v2.6h-4.33v-2.6h4.33zm16.454 0v2.6h-11.69v-2.6h11.69zm-16.454-12.13v2.6h-4.33v-2.6h4.33zm16.454 0v2.6h-11.69v-2.6h11.69zm0-5.199v2.6h-3.464v-2.6h3.464zm-8.227 0v2.6h-12.557v-2.6h12.557zm-8.227-6.065v2.6h-4.33v-2.6h4.33zm16.454 0v2.6h-11.69v-2.6h11.69zm0-6.065v2.599h-3.464v-2.6h3.464zm-8.227 0v2.599h-12.557v-2.6h12.557zm-8.227-5.2v2.6h-4.33v-2.6h4.33zm16.454 0v2.6h-11.69v-2.6h11.69z" fill="#735CD0" opacity=".1"/></g><g mask="url(#c)"><path d="M6.928 12.997V0h28.579v76.25H0V12.997h6.928z" fill="url(#y)" transform="translate(1525.197 126.078)"/><path fill="url(#z)" d="M35.507 0h18.187v12.997H35.507z" transform="translate(1525.197 126.078)"/><path d="M30.31 47.656v6.065H28.58v-6.065h1.732zm-3.463 0v6.065h-1.732v-6.065h1.732zm-3.464 0v6.065H21.65v-6.065h1.732zm-3.464 0v6.065h-1.732v-6.065h1.732zm-3.465 0v6.065h-1.732v-6.065h1.732zm-3.464 0v6.065h-1.732v-6.065h1.732zm-3.464 0v6.065H7.794v-6.065h1.732zm-3.464 0v6.065H4.33v-6.065h1.732zm24.249-7.798v6.065h-1.732v-6.065h1.732zm-3.464 0v6.065h-1.732v-6.065h1.732zm-3.464 0v6.065H21.65v-6.065h1.732zm-3.464 0v6.065h-1.732v-6.065h1.732zm-3.465 0v6.065h-1.732v-6.065h1.732zm-3.464 0v6.065h-1.732v-6.065h1.732zm-3.464 0v6.065H7.794v-6.065h1.732zm-3.464 0v6.065H4.33v-6.065h1.732zm24.249-7.798v6.065h-1.732V32.06h1.732zm-3.464 0v6.065h-1.732V32.06h1.732zm-3.464 0v6.065H21.65V32.06h1.732zm-3.464 0v6.065h-1.732V32.06h1.732zm-3.465 0v6.065h-1.732V32.06h1.732zm-3.464 0v6.065h-1.732V32.06h1.732zm-3.464 0v6.065H7.794V32.06h1.732zm-3.464 0v6.065H4.33V32.06h1.732zm17.32-7.799v6.066h-1.731V24.26h1.732zm-17.32 0v6.066H4.33V24.26h1.732zm24.249 0v6.066h-1.732V24.26h1.732zm-3.464 0v6.066h-1.732V24.26h1.732zm-6.928 0v6.066h-1.732V24.26h1.732zm-3.465 0v6.066h-1.732V24.26h1.732zm-3.464 0v6.066h-1.732V24.26h1.732zm-3.464 0v6.066H7.794V24.26h1.732zm3.464-7.798v6.065h-1.732v-6.065h1.732zm3.464 0v6.065h-1.732v-6.065h1.732zm3.465 0v6.065h-1.732v-6.065h1.732zm3.464 0v6.065H21.65v-6.065h1.732zm3.464 0v6.065h-1.732v-6.065h1.732zm3.464 0v6.065h-1.732v-6.065h1.732zm-24.249 0v6.065H4.33v-6.065h1.732zm3.464 0v6.065H7.794v-6.065h1.732zm3.464-12.13v8.664h-1.732V4.332h1.732zm3.464 0v8.664h-1.732V4.332h1.732zm3.465 0v8.664h-1.732V4.332h1.732zm3.464 0v8.664H21.65V4.332h1.732zm3.464 0v8.664h-1.732V4.332h1.732zm3.464 0v8.664h-1.732V4.332h1.732z" fill="url(#A)" fill-rule="nonzero" transform="translate(1525.197 126.078)"/><path fill="url(#B)" d="M35.507 12.997h20.785V76.25H35.507z" transform="translate(1525.197 126.078)"/></g><g mask="url(#c)"><path fill="url(#C)" d="M0 0h35.507v23.395H0z" transform="translate(1481.03 173.2)"/><path d="M5.196 16.463v6.065H2.598v-6.065h2.598zm6.928 0v6.065H9.526v-6.065h2.598zm-3.464 0v6.065H6.062v-6.065H8.66zm6.928 0v6.065H12.99v-6.065h2.598zm3.465 0v6.065h-2.599v-6.065h2.599zm6.928 0v6.065h-2.598v-6.065h2.598zm-3.464 0v6.065h-2.598v-6.065h2.598zm6.928 0v6.065h-2.598v-6.065h2.598zm3.464 0v6.065H30.31v-6.065h2.598zM5.196 9.531v6.066H2.598V9.53h2.598zm6.928 0v6.066H9.526V9.53h2.598zm-3.464 0v6.066H6.062V9.53H8.66zm6.928 0v6.066H12.99V9.53h2.598zm3.465 0v6.066h-2.599V9.53h2.599zm6.928 0v6.066h-2.598V9.53h2.598zm-3.464 0v6.066h-2.598V9.53h2.598zm6.928 0v6.066h-2.598V9.53h2.598zm3.464 0v6.066H30.31V9.53h2.598zM5.196 2.6v6.066H2.598V2.599h2.598zm6.928 0v6.066H9.526V2.599h2.598zm-3.464 0v6.066H6.062V2.599H8.66zm6.928 0v6.066H12.99V2.599h2.598zm3.465 0v6.066h-2.599V2.599h2.599zm6.928 0v6.066h-2.598V2.599h2.598zm-3.464 0v6.066h-2.598V2.599h2.598zm6.928 0v6.066h-2.598V2.599h2.598zm3.464 0v6.066H30.31V2.599h2.598z" fill="url(#D)" fill-rule="nonzero" transform="translate(1481.03 173.2)"/><path fill="url(#E)" d="M35.507 0h28.579v23.395H35.507z" transform="translate(1481.03 173.2)"/></g><g mask="url(#c)"><path d="M7.794 3.466h8.66V0h4.33v3.466h7.795v6.932h33.775V41.59H0V10.398h7.794V3.466z" fill="url(#F)" fill-rule="nonzero" transform="translate(1335.538 156.325)"/><path d="M29.951 34.659v2.6H6.928v-2.6h23.023zm32.403 0v2.6H39.33v-2.6h23.023zM13.667 29.46v2.6H0v-2.6h13.667zm48.687 0v2.6H55.52v-2.6h6.834zm-16.23 0v2.6h-24.77v-2.6h24.77zm-16.173-5.199v2.6H6.928v-2.6h23.023zm32.403 0v2.6H39.33v-2.6h23.023zm-48.687-5.199v2.6H0v-2.6h13.667zm48.687 0v2.6H55.52v-2.6h6.834zm-16.23 0v2.6h-24.77v-2.6h24.77z" fill="url(#G)" opacity=".4" transform="translate(1335.538 156.325)"/><path fill="url(#H)" d="M28.579 3.466h12.124v6.932H28.579z" transform="translate(1335.538 156.325)"/><path fill="url(#I)" d="M62.354 10.398h23.383v31.193H62.354z" transform="translate(1335.538 156.325)"/><path d="M1416.944 190.985v2.599h-4.33v-2.6h4.33zm-7.794 0v2.599h-11.259v-2.6h11.259zm-6.929-5.2v2.6h-4.33v-2.6h4.33zm14.723 0v2.6h-11.258v-2.6h11.258zm0-5.198v2.6h-4.33v-2.6h4.33zm-7.794 0v2.6h-11.259v-2.6h11.259zm-6.929-5.199v2.6h-4.33v-2.6h4.33zm14.723 0v2.6h-11.258v-2.6h11.258z" fill="#735CD0" opacity=".1"/></g><g mask="url(#c)"><path fill="url(#J)" d="M0 0h29.445v42.457H0z" transform="translate(1421.274 155.871)"/><path d="M29.445 34.659v2.6H0v-2.6h29.445zm0-5.199v2.6H0v-2.6h29.445zm0-5.199v2.6H0v-2.6h29.445zm0-9.53v2.599H0v-2.6h29.445zm0-5.2v2.6H0v-2.6h29.445zm0-5.199v2.6H0v-2.6h29.445z" fill="url(#K)" fill-rule="nonzero" transform="translate(1421.274 155.871)"/><path fill="url(#L)" d="M29.445 0h12.124v42.457H29.445z" transform="translate(1421.274 155.871)"/><path d="M1462.843 190.53v2.6h-12.124v-2.6h12.124zm0-5.199v2.6h-12.124v-2.6h12.124zm0-5.199v2.6h-12.124v-2.6h12.124zm0-9.53v2.598h-12.124v-2.599h12.124zm0-5.2v2.6h-12.124v-2.6h12.124zm0-5.199v2.6h-12.124v-2.6h12.124z" fill="#735CD0" opacity=".1"/></g><path fill="url(#M)" fill-rule="nonzero" mask="url(#c)" d="M1242.564 119.641h38.222v79.283h-38.222z"/><path d="M1249.934 108.62v7.48h-2.52v-2.757h-2.33v2.758h-2.52v-7.482h2.52v2.65h2.33v-2.65h2.52zm5.138 7.652c-.805 0-1.528-.168-2.168-.503a3.772 3.772 0 01-1.507-1.394c-.363-.595-.544-1.267-.544-2.015 0-.748.181-1.42.544-2.015a3.772 3.772 0 011.507-1.394c.64-.335 1.363-.503 2.168-.503.805 0 1.527.168 2.168.503.641.335 1.143.8 1.506 1.394.364.595.545 1.267.545 2.015 0 .748-.181 1.42-.545 2.015a3.772 3.772 0 01-1.506 1.394c-.64.335-1.363.503-2.168.503zm0-2.042c.313 0 .596-.076.85-.23.252-.153.453-.37.603-.651.15-.282.224-.611.224-.989s-.075-.707-.224-.989a1.645 1.645 0 00-.604-.652 1.606 1.606 0 00-.85-.23c-.312 0-.595.077-.848.23-.253.154-.454.371-.604.652-.15.282-.224.611-.224.989s.075.707.224.989c.15.281.35.498.604.651.253.154.536.23.849.23zm6.334-3.655h-2.19v-1.956h6.9v1.956h-2.189v5.526h-2.52v-5.526zm11.58 3.623v1.903h-6.218v-7.482h6.078v1.903h-3.6v.876h3.162v1.817h-3.161v.983h3.738zm.971-5.579h2.521v5.526h3.376v1.956h-5.897v-7.482z" fill="url(#N)" fill-rule="nonzero" mask="url(#c)"/><path d="M1255.615 190.26v10.26h-.932v-10.26h.932zm-1.864 0v10.26h-.933v-10.26h.933zm21.441 0v10.26h-.932v-10.26h.932zm-1.864 0v10.26h-.932v-10.26h.932zm-4.661 0v10.26h-.933v-10.26h.933zm-1.865 0v10.26h-.932v-10.26h.932zm-4.661 0v10.26h-.932v-10.26h.932zm-1.865 0v10.26h-.932v-10.26h.932zm-11.187 0v10.26h-.932v-10.26h.932zm-1.864 0v10.26h-.932v-10.26h.932zm8.39-9.327v5.596h-.932v-5.596h.932zm-8.39 0v5.596h-.932v-5.596h.932zm1.864 0v5.596h-.932v-5.596h.932zm11.187 0v5.596h-.932v-5.596h.932zm1.865 0v5.596h-.932v-5.596h.932zm4.661 0v5.596h-.932v-5.596h.932zm1.865 0v5.596h-.933v-5.596h.933zm4.66 0v5.596h-.931v-5.596h.932zm1.865 0v5.596h-.932v-5.596h.932zm-21.441 0v5.596h-.933v-5.596h.933zm0-9.328v5.597h-.933v-5.597h.933zm1.864 0v5.597h-.932v-5.597h.932zm-8.39 0v5.597h-.932v-5.597h.932zm1.864 0v5.597h-.932v-5.597h.932zm11.187 0v5.597h-.932v-5.597h.932zm1.865 0v5.597h-.932v-5.597h.932zm4.661 0v5.597h-.932v-5.597h.932zm1.865 0v5.597h-.933v-5.597h.933zm4.66 0v5.597h-.931v-5.597h.932zm1.865 0v5.597h-.932v-5.597h.932zm0-9.327v5.596h-.932v-5.596h.932zm-1.864 0v5.596h-.932v-5.596h.932zm-4.661 0v5.596h-.933v-5.596h.933zm-1.865 0v5.596h-.932v-5.596h.932zm-4.661 0v5.596h-.932v-5.596h.932zm-1.865 0v5.596h-.932v-5.596h.932zm-11.187 0v5.596h-.932v-5.596h.932zm-1.864 0v5.596h-.932v-5.596h.932zm8.39 0v5.596h-.932v-5.596h.932zm-1.864 0v5.596h-.933v-5.596h.933zm21.441-9.327v5.596h-.932v-5.596h.932zm-1.864 0v5.596h-.932v-5.596h.932zm-4.661 0v5.596h-.933v-5.596h.933zm-1.865 0v5.596h-.932v-5.596h.932zm-4.661 0v5.596h-.932v-5.596h.932zm-1.865 0v5.596h-.932v-5.596h.932zm-11.187 0v5.596h-.932v-5.596h.932zm-1.864 0v5.596h-.932v-5.596h.932zm8.39 0v5.596h-.932v-5.596h.932zm-1.864 0v5.596h-.933v-5.596h.933zm14.916-9.328v5.597h-.933v-5.597h.933zm-13.052 0v5.597h-.932v-5.597h.932zm-1.864 0v5.597h-.933v-5.597h.933zm21.441 0v5.597h-.932v-5.597h.932zm-1.864 0v5.597h-.932v-5.597h.932zm-11.187 0v5.597h-.932v-5.597h.932zm-1.865 0v5.597h-.932v-5.597h.932zm-11.187 0v5.597h-.932v-5.597h.932zm-1.864 0v5.597h-.932v-5.597h.932zm19.577 0v5.597h-.932v-5.597h.932zm-6.526-9.327v5.596h-.932v-5.596h.932zm1.865 0v5.596h-.932v-5.596h.932zm4.661 0v5.596h-.932v-5.596h.932zm8.39 0v5.596h-.932v-5.596h.932zm-21.441 0v5.596h-.933v-5.596h.933zm1.864 0v5.596h-.932v-5.596h.932zm-8.39 0v5.596h-.932v-5.596h.932zm26.103 0v5.596h-.932v-5.596h.932zm-4.661 0v5.596h-.933v-5.596h.933zm-19.578 0v5.596h-.932v-5.596h.932zm13.052-9.327v5.596h-.932v-5.596h.932zm4.661 0v5.596h-.932v-5.596h.932zm1.865 0v5.596h-.933v-5.596h.933zm4.66 0v5.596h-.931v-5.596h.932zm1.865 0v5.596h-.932v-5.596h.932zm-21.441 0v5.596h-.933v-5.596h.933zm1.864 0v5.596h-.932v-5.596h.932zm-8.39 0v5.596h-.932v-5.596h.932zm1.864 0v5.596h-.932v-5.596h.932zm11.187 0v5.596h-.932v-5.596h.932z" fill="url(#O)" mask="url(#c)"/><path fill="url(#P)" mask="url(#c)" d="M1280.786 119.641h21.442v79.283h-21.442z"/><path d="M1288.364 188.664v10.26h-.571v-10.26h.571zm-1.143 0v10.26h-.571v-10.26h.571zm13.142 0v10.26h-.571v-10.26h.571zm-1.143 0v10.26h-.571v-10.26h.571zm-2.857 0v10.26h-.571v-10.26h.571zm-1.142 0v10.26h-.572v-10.26h.572zm-2.857 0v10.26h-.572v-10.26h.572zm-1.143 0v10.26h-.571v-10.26h.571zm-6.857 0v10.26h-.57v-10.26h.57zm-1.142 0v10.26h-.572v-10.26h.572zm5.142-9.328v5.597h-.571v-5.597h.571zm-5.142 0v5.597h-.572v-5.597h.572zm1.142 0v5.597h-.57v-5.597h.57zm6.857 0v5.597h-.571v-5.597h.571zm1.143 0v5.597h-.572v-5.597h.572zm2.857 0v5.597h-.572v-5.597h.572zm1.142 0v5.597h-.571v-5.597h.571zm2.857 0v5.597h-.571v-5.597h.571zm1.143 0v5.597h-.571v-5.597h.571zm-13.142 0v5.597h-.571v-5.597h.571zm0-9.327v5.596h-.571v-5.596h.571zm1.143 0v5.596h-.571v-5.596h.571zm-5.142 0v5.596h-.572v-5.596h.572zm1.142 0v5.596h-.57v-5.596h.57zm6.857 0v5.596h-.571v-5.596h.571zm1.143 0v5.596h-.572v-5.596h.572zm2.857 0v5.596h-.572v-5.596h.572zm1.142 0v5.596h-.571v-5.596h.571zm2.857 0v5.596h-.571v-5.596h.571zm1.143 0v5.596h-.571v-5.596h.571zm0-9.327v5.596h-.571v-5.596h.571zm-1.143 0v5.596h-.571v-5.596h.571zm-2.857 0v5.596h-.571v-5.596h.571zm-1.142 0v5.596h-.572v-5.596h.572zm-2.857 0v5.596h-.572v-5.596h.572zm-1.143 0v5.596h-.571v-5.596h.571zm-6.857 0v5.596h-.57v-5.596h.57zm-1.142 0v5.596h-.572v-5.596h.572zm5.142 0v5.596h-.571v-5.596h.571zm-1.143 0v5.596h-.571v-5.596h.571zm13.142-9.328v5.597h-.571v-5.597h.571zm-1.143 0v5.597h-.571v-5.597h.571zm-2.857 0v5.597h-.571v-5.597h.571zm-1.142 0v5.597h-.572v-5.597h.572zm-2.857 0v5.597h-.572v-5.597h.572zm-1.143 0v5.597h-.571v-5.597h.571zm-6.857 0v5.597h-.57v-5.597h.57zm-1.142 0v5.597h-.572v-5.597h.572zm5.142 0v5.597h-.571v-5.597h.571zm-1.143 0v5.597h-.571v-5.597h.571zm9.142-9.327v5.596h-.571v-5.596h.571zm-7.999 0v5.596h-.571v-5.596h.571zm-1.143 0v5.596h-.571v-5.596h.571zm13.142 0v5.596h-.571v-5.596h.571zm-1.143 0v5.596h-.571v-5.596h.571zm-6.856 0v5.596h-.572v-5.596h.572zm-1.143 0v5.596h-.571v-5.596h.571zm-6.857 0v5.596h-.57v-5.596h.57zm-1.142 0v5.596h-.572v-5.596h.572zm11.999 0v5.596h-.572v-5.596h.572zm-4-9.327v5.596h-.571V132.7h.571zm1.143 0v5.596h-.572V132.7h.572zm2.857 0v5.596h-.572V132.7h.572zm5.142 0v5.596h-.571V132.7h.571zm-13.142 0v5.596h-.571V132.7h.571zm1.143 0v5.596h-.571V132.7h.571zm-5.142 0v5.596h-.572V132.7h.572zm15.998 0v5.596h-.571V132.7h.571zm-2.857 0v5.596h-.571V132.7h.571zm-11.999 0v5.596h-.57V132.7h.57zm8-9.328v5.597h-.572v-5.597h.572zm2.857 0v5.597h-.572v-5.597h.572zm1.142 0v5.597h-.571v-5.597h.571zm2.857 0v5.597h-.571v-5.597h.571zm1.143 0v5.597h-.571v-5.597h.571zm-13.142 0v5.597h-.571v-5.597h.571zm1.143 0v5.597h-.571v-5.597h.571zm-5.142 0v5.597h-.572v-5.597h.572zm1.142 0v5.597h-.57v-5.597h.57zm6.857 0v5.597h-.571v-5.597h.571z" fill="url(#Q)" mask="url(#c)"/><g mask="url(#c)"><g transform="translate(-259.865 166.278)"><mask id="U" fill="#fff"><use xlink:href="#R"/></mask><use fill="url(#S)" xlink:href="#R"/><path d="M539.704 3.971C569.367 6.903 714-.393 816.79 21.453c68.525 14.564 465.028 101.32 1189.507 260.269L384.86 287.765l-130.36-2.398 5.58-270.148L495.13-.711c9.941 1.168 24.8 2.728 44.574 4.682z" fill="url(#T)" mask="url(#U)"/><path d="M442.819 20.52C481.082 6.53 518.945 1.865 556.406 6.53c56.191 6.995 40.665-50.46 38.298-50.46-1.578 0-119.264 17.987-353.058 53.96l15.965 81.633L442.819 20.52z" fill="url(#V)" mask="url(#U)"/></g></g><path d="M599.543 162.058c4.793-.423 9.397 1.482 11.908 5.294 2.111-.08 4.178.269 6.2 1.057l3.492 1.952a15.727 15.727 0 016.07 10.01c.43 2.621.171 5.319-.702 7.8a15.358 15.358 0 013.857 7.897c1.257 7.691-4.192 16.757-12.343 17.477-.246.021-.49.04-.734.054-1.507 4.226-5.046 7.775-9.606 8.178-3.169.28-6.076-.094-8.746-1.823l-3.663.106c-1.76 1.627-3.952 2.73-6.431 2.95-3.185.28-6.12-.064-8.825-1.678l-.451.138a21.637 21.637 0 01-4.468.26 19.65 19.65 0 01.037 4.783c-1.183 10.241-11.587 19.74-22.448 17.63-4.013-.779-7.592-2.112-10.603-4.524a25.12 25.12 0 01-7.338 2.255l-6.426.088c-4.517-.553-8.593-2.192-12.229-4.914l-4.562-4.503c-.227-.292-.446-.59-.66-.892-.909.261-1.841.468-2.801.61l-5.357.073c-3.765-.46-7.163-1.826-10.193-4.095l-3.803-3.754c-3.276-4.207-4.812-9.608-4.203-14.882.629-5.446 3.5-10.507 7.874-13.848a20.732 20.732 0 018.666-3.87c1.916-5.099 6.084-9.535 11.15-11.64 1.617-9.926 11.757-18.879 22.332-16.825 5.512 1.07 10.208 3.174 13.734 7.702a20.192 20.192 0 013.547 7.13c1.685-4.147 5.264-7.543 9.813-7.945 1.84-.162 3.594-.113 5.27.27.094-.136.187-.272.285-.406 1.992-2.718 4.508-4.781 7.546-6.19l4.75-1.459c3.47-.558 6.844-.198 10.124 1.081l3.362 1.88c1.702-1.884 3.964-3.196 6.575-3.427z" fill="url(#W)" mask="url(#c)"/><path stroke="#846CA2" opacity=".3" mask="url(#c)" d="M622.544 199.424h1314.315v2.731H622.544z"/><path stroke="#FAF6FF" opacity=".4" mask="url(#c)" d="M622.544 198.491h1343.3v2.731h-1343.3z"/><path fill="url(#X)" opacity=".6" mask="url(#c)" d="M1690.402 293.773l171.468 35.016 49.168-12.88-115.292-22.136-90.987-2.28z"/><path fill="url(#Y)" opacity=".6" mask="url(#c)" d="M1732.353 312.428l171.956 35.885 37.716-19.1-127.684-23.748-67.631 4.682z"/><path fill="url(#Z)" mask="url(#c)" d="M1339.876 291.908l147.457 30.697 28.313-8.078-138.53-24.918-22.883.018z"/><path fill="url(#aa)" opacity=".67" filter="url(#ab)" mask="url(#c)" d="M703.723 207.029l92.255 12.996 533.285.352-163.09-21.97-438.673.644z"/><path fill="url(#ac)" opacity=".1" mask="url(#c)" d="M440.316 226.2l147.404 35.341 35.5-8.576-134.287-29.424z"/><path d="M493.476 209.137c2.914-3.12 4.762-7.358 4.809-11.549.047-4.283-1.582-8.487-4.466-11.583a15.482 15.482 0 00-1.921-1.747 9.38 9.38 0 00.099-1.229c.064-5.79-4.39-9.681-9.718-10.156a7.57 7.57 0 00-1.883.07 15.36 15.36 0 00-2.5-3.618c-2.937-3.153-6.549-4.37-10.68-4.738-4.54-.405-8.7 1.921-11.506 5.422-1.332-.413-2.74-.658-4.22-.79-7.348-.655-13.656 6.158-14.426 13.253-.192.098-.377.102-.565.208v-.088a19.092 19.092 0 00-3.271 2.548c-3.067 2.994-4.857 7.262-4.905 11.598-.046 4.2 1.55 8.344 4.378 11.38v.014a47.642 47.642 0 003.13 2.589l.06.052.019.012c.092.07.18.14.273.21l.096.055c-.046.44-.076.883-.081 1.324-.046 4.116 1.52 8.154 4.291 11.13 3.04 3.264 6.778 4.524 11.054 4.905 2.112.188 4.144-.194 6.005-1.001 2.442 1.724 5.248 2.49 8.353 2.767 2.54.226 4.958-.416 7.082-1.643 2.118 1.17 4.478 1.736 7.044 1.965 7.969.71 14.742-7.17 14.827-14.871.025-2.248-.46-4.47-1.378-6.49" fill="url(#ad)" mask="url(#c)"/><g mask="url(#c)"><g transform="translate(1324.028 239.964)"><mask id="ah" fill="#fff"><use xlink:href="#ae"/></mask><use fill="url(#af)" xlink:href="#ae"/><path d="M70.195 31.553c-.314-4.133-2.291-8.042-5.425-10.776a15.312 15.312 0 00-2.061-1.516 8.79 8.79 0 00-.005-1.193c-.424-5.586-5.189-8.949-10.536-8.942-.644.001-1.269.083-1.87.232-.764-1.213 2.406-5.623 1.315-6.575C48.422 0 42.222 2.077 35.405.456 28.588-1.165 23.663 3.7 21.162 7.32c-1.127-.814.477 2.419.2 2.288-.817-.388-1.077-2.116-2.186-2.115-4.617.006-9.06 9.904-8.716 18.036.206 4.86 4.755 8.257 4.692 10.84-.183.112-18.703 2.99-15.2-5.107l-4.666 2.665c-1.11.8-1.403-.82-2.322.203-2.802 3.153 7.158-1.483 7.475 2.7.309 4.052 2.247 7.908 5.32 10.587l.002.014a47.33 47.33 0 003.335 2.222l.065.045.02.01c.097.06.19.12.289.179l.1.044c-.008.43-.001.858.03 1.284.303 3.97 2.202 7.727 5.214 10.353 3.302 2.881 7.132 3.77 11.424 3.765 2.119-.003 4.111-.549 5.897-1.488 2.577 1.449 5.436 1.943 8.553 1.939 2.549-.004 4.903-.833 6.915-2.2 2.208.943 4.606 1.282 7.182 1.28 7.997-.011 14.078-8.196 13.514-15.626a14.412 14.412 0 00-1.92-6.135c2.64-3.261 4.123-7.506 3.816-11.55z" fill="url(#ag)" mask="url(#ah)" transform="rotate(5 31.351 32.96)"/></g></g><g mask="url(#c)" fill="url(#ai)" fill-rule="nonzero"><path d="M1168.62 195.035l-5.543-.756a4.073 4.073 0 00-2.655-.992c-.621 0-1.208.15-1.737.395l-20.274-2.768-160.754-1.372-66.822 2.86-1.034 3.485-52.673-6.917-70.776 4.987-1.635-3.433 1.02 8.978h70.983a4.099 4.099 0 003.526 2.017 4.097 4.097 0 003.522-2.017h3.849a4.097 4.097 0 003.521 2.017 4.072 4.072 0 003.075-1.406 4.09 4.09 0 003.079 1.406 4.09 4.09 0 003.522-2.017h3.849a4.097 4.097 0 003.521 2.017 4.097 4.097 0 003.522-2.017h33.375a4.097 4.097 0 003.522 2.017 4.097 4.097 0 003.521-2.017h3.85a4.097 4.097 0 003.52 2.017 4.072 4.072 0 003.075-1.406c.08.09.137-.204.292-.479.805.038 3.871-.12 6.304-.132H1122.9a4.097 4.097 0 003.521 2.017 4.097 4.097 0 003.522-2.017h3.849a4.097 4.097 0 003.522 2.017c1.506 0 2.805-.814 3.526-2.017h5.134c1.993.011 16.372-.347 18.181-.443l4.465-4.024z"/></g><path d="M1115.062 194.212a1.7 1.7 0 01-1.703 1.699h-8.25c-.939 0-1.704-.76-1.704-1.7V172.43c0-.939.76-1.704 1.703-1.704h8.251c.938 0 1.703.76 1.703 1.704v21.782z" fill="#EFEFEF" fill-rule="nonzero" mask="url(#c)"/><g fill-rule="nonzero" mask="url(#c)"><use fill="url(#aj)" xlink:href="#ak"/><use fill="url(#al)" xlink:href="#ak"/></g><path d="M791.72 189.848h362.291c.372 1.09.557 1.841.557 2.252 0 .41-.009.732-.027.967H791.72v-3.22z" fill="url(#am)" fill-rule="nonzero" mask="url(#c)"/><path d="M1143.968 166.808c-5.11-2.166-10.253-3.543-14.848-3.543h-3.767l-2.761-2.763h-15.636l-2.406 2.763h-40.793l-1.949-1.95h-14.765l-1.703 1.95h-69.92l-1.94-1.95h-14.774l-1.694 1.95h-85.267l-1.944-1.945h-14.765l-1.694 1.945-52.17-.06 6.048 2.601 336.748 1.002z" fill="url(#an)" fill-rule="nonzero" mask="url(#c)"/><g mask="url(#c)" fill-rule="nonzero"><path fill="url(#ao)" d="M.063.39L2.01 2.328h6.52L6.585.389z" transform="translate(863.215 160.878)"/><path fill="#351162" opacity=".2" d="M895.416 163.207h9.28v34.571h-9.28z"/><path fill="url(#ao)" d="M192.07.39l1.943 1.939h6.524l-1.944-1.94zM103.742.39l1.944 1.939h6.524L110.26.389z" transform="translate(863.215 160.878)"/></g><g mask="url(#c)"><g transform="translate(705.529 160.037)"><g fill-rule="nonzero"><use fill="url(#ap)" xlink:href="#aq"/><use fill="url(#ar)" xlink:href="#aq"/><use fill="url(#as)" xlink:href="#aq"/></g><g fill-rule="nonzero"><use fill="url(#at)" xlink:href="#au"/><use fill="url(#av)" xlink:href="#au"/></g><path d="M90.821 13.717a1 1 0 01.994.883l.006.117v7.656a1 1 0 01-.883.994l-.117.006H78.344a1 1 0 01-.993-.883l-.007-.117v-7.656a1 1 0 01.883-.994l.117-.006h12.477zm-19.303 0a1 1 0 01.994.883l.006.117v7.656a1 1 0 01-.883.994l-.117.006H59.041a1 1 0 01-.993-.883l-.007-.117v-7.656a1 1 0 01.883-.994l.117-.006h12.477zm-19.303 0a1 1 0 01.993.883l.007.117v7.656a1 1 0 01-.883.994l-.117.006H39.738a1 1 0 01-.993-.883l-.007-.117v-7.656a1 1 0 01.883-.994l.117-.006h12.477zm-19.303 0a1 1 0 01.993.883l.007.117v7.656a1 1 0 01-.883.994l-.117.006H20.435a1 1 0 01-.993-.883l-.007-.117v-7.656a1 1 0 01.883-.994l.117-.006h12.477zm-19.303 0a1 1 0 01.993.883l.007.117v7.656a1 1 0 01-.883.994l-.117.006H1.132a1 1 0 01-.993-.883l-.007-.117v-7.656a1 1 0 01.883-.994l.117-.006h12.477zm154.425 0a1 1 0 01.993.883l.007.117v7.656a1 1 0 01-.884.994l-.116.006h-12.478a1 1 0 01-.993-.883l-.007-.117v-7.656a1 1 0 01.884-.994l.116-.006h12.478zm-19.304 0a1 1 0 01.994.883l.006.117v7.656a1 1 0 01-.883.994l-.117.006h-12.477a1 1 0 01-.993-.883l-.007-.117v-7.656a1 1 0 01.884-.994l.116-.006h12.477zm-19.303 0a1 1 0 01.994.883l.006.117v7.656a1 1 0 01-.883.994l-.117.006H116.95a1 1 0 01-.993-.883l-.007-.117v-7.656a1 1 0 01.883-.994l.117-.006h12.477zm-19.303 0a1 1 0 01.994.883l.006.117v7.656a1 1 0 01-.883.994l-.117.006H97.647a1 1 0 01-.993-.883l-.007-.117v-7.656a1 1 0 01.883-.994l.117-.006h12.477z" fill="url(#aw)" fill-rule="nonzero"/><path d="M399.062 15.521v6.048a1 1 0 001 1h6.847a1 1 0 001-1V15.52a1 1 0 00-1-1h-6.847a1 1 0 00-1 1z" fill="url(#ax)" fill-rule="nonzero"/><path d="M204.554 15.521v6.048a1 1 0 001 1h6.847a1 1 0 001-1V15.52a1 1 0 00-1-1h-6.847a1 1 0 00-1 1z" fill="url(#ay)" fill-rule="nonzero"/><path d="M175.6 15.521v6.048a1 1 0 001 1h6.847a1 1 0 001-1V15.52a1 1 0 00-1-1H176.6a1 1 0 00-1 1z" fill="url(#az)" fill-rule="nonzero"/><rect stroke="url(#aA)" x="397.821" y="13.375" width="11.064" height="20.727" rx="2"/><rect stroke="url(#aB)" x="203.314" y="13.375" width="11.064" height="20.727" rx="2"/><rect stroke="url(#aC)" x="174.359" y="13.375" width="11.064" height="20.727" rx="2"/><path d="M468.22 31.027c-.405-1.545-1.612-3.495-3.44-5.647-2.074-2.45-4.956-5.17-8.314-7.827h-.01c-3.868-3.056-8.39-6.05-13.09-8.5a77.114 77.114 0 00-3.037-1.502c-5.715-2.643-11.575-4.376-16.733-4.376h-3.767L417.068.412h-3.113l1.563 2.763h-3.42c-1.877 0-2.112.515-.64.953.048.01.091.03.159.044.105.019.216.057.336.081 2.954.77 6.005 1.902 9.012 3.298 1.015.476 2.03.972 3.035 1.502 4.83 2.517 9.469 5.603 13.409 8.75 3.228 2.58 5.995 5.2 8.015 7.577 1.819 2.152 3.031 4.102 3.43 5.647 1.747 6.72-8.534 6.72-8.534 6.72h19.36c-.005 0 10.276 0 8.54-6.72z" fill="url(#aD)" fill-rule="nonzero" opacity=".361"/></g></g><path fill="url(#aE)" opacity=".8" mask="url(#c)" d="M207.899 296.244l171.386 57.395 41.277-10.045-156.136-50.464z"/><path fill="url(#aF)" opacity=".7" mask="url(#c)" d="M158.49 292.513l141.37 60.417 36.601-15.98-85.329-29.279-48.234-20.137z"/><path fill="url(#aG)" opacity=".7" mask="url(#c)" d="M188.322 327.025l160.86 61.125 25.478-15.98-141.93-50.125z"/><g mask="url(#c)"><g transform="translate(146.596 233.435)"><mask id="aK" fill="#fff"><use xlink:href="#aH"/></mask><use fill="url(#aI)" xlink:href="#aH"/><path d="M112.884 4.43c4.792-.423 9.397 1.483 11.907 5.295 2.112-.081 4.18.269 6.2 1.057l3.493 1.952a15.727 15.727 0 016.07 10.009c.429 2.622.171 5.32-.702 7.801a15.358 15.358 0 013.857 7.896c1.257 7.692-4.193 16.758-12.343 17.477-.246.022-.491.04-.734.055-1.507 4.226-5.046 7.775-9.606 8.177-3.169.28-5.483 2.48-8.153.752-1.22.035-3.005-.854-4.226-.818-1.76 1.627-3.982 1.08-6.461 1.299-3.185.281-6.12-.063-8.826-1.678l-.45.14a21.637 21.637 0 01-4.468.258 19.65 19.65 0 01.037 4.784c-1.183 10.241-11.587 19.74-22.448 17.63-4.013-.779-7.592-2.112-10.604-4.524a25.12 25.12 0 01-7.337 2.255l-6.427.087c-4.516-.553-8.592-2.191-12.228-4.913l-4.562-4.503c-.227-.293-.446-.59-.66-.893-.909.262-1.842.469-2.801.611l-5.357.073c-3.766-.46-7.163-1.826-10.194-4.096L2.06 66.86c-3.277-4.207-4.812-9.609-4.203-14.882.629-5.446 3.5-10.507 7.874-13.848a20.732 20.732 0 018.666-3.87c1.915-5.099 6.083-9.536 11.15-11.64 1.617-9.926 11.757-18.88 22.332-16.826 5.511 1.07 10.208 3.175 13.734 7.703a20.192 20.192 0 013.547 7.13c1.684-4.147 5.264-7.543 9.813-7.945 1.84-.163 3.594-.113 5.27.27.094-.136.187-.272.284-.407 1.993-2.717 4.508-4.78 7.547-6.19l4.75-1.458c3.47-.558 6.844-.198 10.123 1.081l3.363 1.88c1.702-1.884 3.963-3.197 6.575-3.427z" fill="url(#aJ)" mask="url(#aK)"/></g></g><g mask="url(#c)"><g transform="translate(175.496 267.946)"><mask id="aO" fill="#fff"><use xlink:href="#aL"/></mask><use fill="url(#aM)" xlink:href="#aL"/><path d="M88.479 68.886c.598-5.174-.91-10.475-4.125-14.603a18.927 18.927 0 00-3.675-3.605 19.64 19.64 0 001.304-5.053c.628-5.439-.956-11.009-4.334-15.348-3.184-4.088-7.277-6.293-12.04-7.547a20.249 20.249 0 00-3.997-9.233c-3.526-4.528-8.223-6.632-13.734-7.703-10.575-2.053-20.715 6.9-22.332 16.826-5.067 2.104-9.235 6.541-11.15 11.64a20.732 20.732 0 00-8.666 3.87c-4.375 3.34-7.245 8.402-7.874 13.848-.61 5.273.926 10.675 4.203 14.882l3.802 3.753c3.03 2.27 6.428 3.635 10.194 4.096l5.357-.073c.96-.142 1.892-.35 2.8-.61.215.301.434.6.661.892l4.562 4.503c3.636 2.722 7.712 4.36 12.228 4.913l6.427-.087a25.12 25.12 0 007.337-2.255c3.012 2.412 6.59 3.745 10.604 4.524 10.86 2.11 21.265-7.389 22.448-17.63" fill="url(#aN)" mask="url(#aO)"/></g></g><g mask="url(#c)"><g transform="translate(1677.35 234.368)"><mask id="aS" fill="#fff"><use xlink:href="#aP"/></mask><use fill="url(#aQ)" xlink:href="#aP"/><path d="M112.884 4.43c4.792-.423 9.397 1.483 11.907 5.295 2.112-.081 4.18.269 6.2 1.057l3.493 1.952a15.727 15.727 0 016.07 10.009c.429 2.622.171 5.32-.702 7.801a15.358 15.358 0 013.857 7.896c1.257 7.692-4.193 16.758-12.343 17.477-.246.022-.491.04-.734.055-1.507 4.226-5.046 7.775-9.606 8.177-3.169.28-6.076-.094-8.747-1.822l-3.662.106c-1.76 1.627-3.952 2.73-6.431 2.949-3.185.281-6.12-.063-8.826-1.678l-.45.14a21.637 21.637 0 01-4.468.258 19.65 19.65 0 01.037 4.784c-1.183 10.241-11.587 19.74-22.448 17.63-4.013-.779-7.592-2.112-10.604-4.524a25.12 25.12 0 01-7.337 2.255l-6.427.087c-4.516-.553-8.592-2.191-12.228-4.913l-4.562-4.503c-.227-.293-.446-.59-.66-.893-.909.262-1.842.469-2.801.611l-5.357.073c-3.766-.46-7.163-1.826-10.194-4.096L2.06 66.86c-3.277-4.207-4.812-9.609-4.203-14.882.629-5.446 3.5-10.507 7.874-13.848a20.732 20.732 0 018.666-3.87c1.915-5.099 6.083-9.536 11.15-11.64 1.617-9.926 11.757-18.88 22.332-16.826 5.511 1.07 10.208 3.175 13.734 7.703a20.192 20.192 0 013.547 7.13c1.684-4.147 5.264-7.543 9.813-7.945 1.84-.163 3.594-.113 5.27.27.094-.136.187-.272.284-.407 1.993-2.717 4.508-4.78 7.547-6.19l4.75-1.458c3.47-.558 6.844-.198 10.123 1.081l3.363 1.88c1.702-1.884 3.963-3.197 6.575-3.427z" fill="url(#aR)" mask="url(#aS)"/><use fill="url(#aU)" xlink:href="#aT"/></g></g><g mask="url(#c)"><g transform="matrix(-1 0 0 1 1829.307 253.022)"><mask id="aY" fill="#fff"><use xlink:href="#aV"/></mask><use fill="url(#aW)" transform="rotate(11 37.203 33.78)" xlink:href="#aV"/><path d="M68.18 35.623a13.249 13.249 0 00-3.011-1.978c.234-1.207.317-2.432.225-3.637-.291-3.81-1.737-10.91-4.642-13.43-2.737-2.374-13.633 1.596-17.081 1.374a14.094 14.094 0 00-3.983-5.79C36.655 9.532 33.14 8.719 29.2 8.724c-7.558.009-13.35 7.5-13.143 14.518-3.21 2.12-5.49 5.718-6.13 9.467a14.587 14.587 0 00-5.455 3.812C1.905 39.396.601 43.248.893 47.063c.283 3.695 2.06 7.19 4.877 9.634l3.12 2.062a14.762 14.762 0 007.567 1.441l3.68-.767a15.192 15.192 0 001.849-.794c.187.179.378.353.574.523l3.742 2.475a17.713 17.713 0 009.078 1.729l4.415-.92a17.699 17.699 0 004.754-2.528c2.396 1.25 5.039 1.683 7.907 1.68 7.762-.01 21.06-9.348 20.51-16.522-.277-3.626-2.02-7.056-4.785-9.453z" fill="url(#aX)" mask="url(#aY)" transform="rotate(11 36.918 36.069)"/></g></g><g mask="url(#c)"><g transform="translate(1718.37 262.35)"><mask id="bc" fill="#fff"><use xlink:href="#aZ"/></mask><use fill="url(#ba)" xlink:href="#aZ"/><path d="M61.344 39.253c2.51-3.144 3.919-7.238 3.622-11.14a15.55 15.55 0 00-5.179-10.402 14.643 14.643 0 00-1.964-1.465 8.59 8.59 0 00-.006-1.151c-.41-5.39-4.952-8.64-10.045-8.639-.614 0-1.209.078-1.781.221a14.335 14.335 0 00-2.666-3.157C40.283.83 36.758-.001 32.81 0c-4.34 0-8.096 2.508-10.473 5.998-1.297-.274-2.654-.386-4.067-.385-7.025 0-12.454 6.86-12.607 13.523-.174.107-.35.125-.518.24l-.009-.082a18.137 18.137 0 00-2.895 2.641c-2.665 3.04-4.016 7.157-3.708 11.194a15.293 15.293 0 005.078 10.22l.002.013a45.183 45.183 0 003.18 2.148l.06.044.019.01c.093.056.182.114.276.172l.095.043c-.007.414 0 .828.031 1.238a14.94 14.94 0 004.977 9.995c3.149 2.783 6.797 3.645 10.885 3.645 2.018 0 3.915-.525 5.615-1.43 2.456 1.401 5.18 1.88 8.148 1.88 2.428 0 4.67-.797 6.585-2.115 2.104.913 4.389 1.243 6.842 1.243 7.616-.002 13.4-7.892 12.854-15.061a14.06 14.06 0 00-1.835-5.92" fill="url(#bb)" mask="url(#bc)" transform="rotate(5 31.747 30.553)"/><use fill="url(#be)" xlink:href="#bd"/></g></g><path d="M615.51 239.46c92.838 19.512 165.794 34.09 218.87 43.731 53.076 9.643 103.86 11.726 152.352 6.25l11.475-23.084-202.299-41.201c-23.753-3.798-44.992-5.45-63.717-4.954-18.725.496-47.613 3.474-86.664 8.934L615.51 239.46z" fill="url(#bf)" opacity=".7" mask="url(#c)"/><path d="M674.242 251.585c92.838 19.513 165.794 34.09 218.87 43.732 53.075 9.642 71.17 7.595 54.284-6.142l46.352.364-140.204-31.307-75.057-16.5-74.228-.47-30.017 10.323z" fill="url(#bg)" opacity=".1" mask="url(#c)"/><g mask="url(#c)"><g transform="translate(597.34 149.765)"><mask id="bk" fill="#fff"><use xlink:href="#bh"/></mask><use fill="url(#bi)" xlink:href="#bh"/><path d="M106.928 56.438a23.144 23.144 0 00-5.252-3.48c.406-2.12.548-4.27.385-6.387-.516-6.694-3.718-13.028-8.784-17.462-4.774-4.177-.359-14.296-6.366-14.693-1.417-3.891-13.643.998-16.792-1.758C64.83 8.031 84.006-.532 52.97-.535 36.847-.536 24.46 17.457 28.981 32.066c-5.587 3.716-9.55 10.03-10.658 16.616a25.32 25.32 0 00-9.492 6.682C4.362 60.408 2.1 67.171 2.618 73.872c.5 6.49 3.604 12.634 8.517 16.933l5.439 3.629c4.165 2.024 8.56 2.874 13.186 2.548l6.409-1.339a26.275 26.275 0 003.218-1.39c.327.314.66.621 1 .92l6.525 4.355c4.998 2.427 10.27 3.447 15.818 3.057l7.69-1.607a30.65 30.65 0 008.275-4.428c4.177 2.2 8.782 2.968 13.778 2.969 13.522.001 23.786-13.863 22.813-26.466-.49-6.369-3.537-12.397-8.358-16.615z" fill="url(#bj)" mask="url(#bk)" transform="rotate(11 58.948 51.066)"/><use fill="url(#bm)" xlink:href="#bl"/></g></g><g mask="url(#c)"><g transform="translate(688.565 157.227)"><mask id="bq" fill="#fff"><use xlink:href="#bn"/></mask><use fill="url(#bo)" xlink:href="#bn"/><path d="M115.493 53.663c-.303-3.988-1.815-7.811-4.25-10.94a20.989 20.989 0 001.847-10.28c-.409-5.37-2.95-10.451-6.973-14.007l-4.453-3.002a20.723 20.723 0 00-8.186-2.13c-2.921-5.359-8.87-8.43-15.342-8.429-3.527 0-9.755-.293-12.255 2.01-1.43-.964.187-.156-1.242-1.12C61.505-.665 47.5-1.889 45.322-1.429 41.086.086 31.052 9.039 28.569 9.039c-9.555 0-25.117 23.87-24.431 32.867.338 4.421 8.493-3.01 11.739-.013-1.7 4.134-2.448 8.655-2.106 13.155.566 7.415 4.075 14.434 9.63 19.344l6.15 4.147c4.711 2.31 9.682 3.28 14.912 2.91l.62-.132c3.439 2.462 7.332 3.263 11.633 3.263 3.348 0 6.414-1.208 8.961-3.163l4.92.288c3.379 2.61 7.231 3.447 11.51 3.447 6.158 0 11.313-4.3 13.824-9.736.327.01.657.014.99.014 11.006 0 19.363-11.403 18.572-21.767" fill="url(#bp)" mask="url(#bq)" transform="rotate(-5 59.83 41.818)"/><path d="M93.801 78.124a15.448 15.448 0 00-5.11-10.318 14.133 14.133 0 00-3.213-2.16c.248-1.317.336-2.653.236-3.968a16.238 16.238 0 00-5.37-10.843c-2.92-2.594-6.24-3.647-9.915-3.893a15.432 15.432 0 00-4.252-6.32c-3.234-2.874-6.981-3.764-11.18-3.763-8.055.001-14.221 8.168-13.992 15.824-3.419 2.309-5.845 6.231-6.524 10.322a15.507 15.507 0 00-5.809 4.152c-2.735 3.133-4.12 7.334-3.804 11.496a15.744 15.744 0 005.208 10.516l3.327 2.253a15.439 15.439 0 008.067 1.58l3.921-.833a15.96 15.96 0 001.97-.863c.2.194.403.385.611.57l3.991 2.704c3.058 1.507 6.283 2.14 9.678 1.896l4.704-1a18.677 18.677 0 005.065-2.751c2.554 1.365 5.372 1.842 8.429 1.841 8.273-.001 14.555-8.614 13.962-16.442" fill="url(#br)" opacity=".4" mask="url(#bq)" transform="rotate(-66 59.332 66.693)"/></g></g><g mask="url(#c)"><g transform="matrix(-1 0 0 1 791.247 177.21)"><mask id="bv" fill="#fff"><use xlink:href="#bs"/></mask><use fill="url(#bt)" transform="rotate(11 46.036 41.756)" xlink:href="#bs"/><path d="M85.304 43.584a16.387 16.387 0 00-3.727-2.443c.29-1.493.394-3.007.28-4.496-.36-4.71-2.146-13.485-5.74-16.6-3.387-2.935-16.871 1.975-21.138 1.702a17.412 17.412 0 00-4.928-7.156c-3.75-3.251-8.1-4.255-12.975-4.248-9.353.013-16.523 9.276-16.268 17.95-3.972 2.622-6.795 7.07-7.588 11.705a18.062 18.062 0 00-6.75 4.714c-3.18 3.554-4.794 8.316-4.433 13.032.348 4.567 2.547 8.887 6.032 11.908l3.86 2.548c2.956 1.42 6.078 2.013 9.363 1.78l4.555-.95c.795-.28 1.556-.609 2.287-.981.232.22.468.436.71.646l4.63 3.058c3.548 1.703 7.292 2.415 11.233 2.135l5.464-1.14a21.92 21.92 0 005.884-3.125c2.964 1.544 6.235 2.08 9.784 2.075 9.606-.013 26.062-11.56 25.385-20.43-.342-4.48-2.5-8.72-5.92-11.684z" fill="url(#bu)" mask="url(#bv)" transform="rotate(11 46.616 44.145)"/></g></g><g mask="url(#c)"><g transform="translate(654.206 188.974)"><mask id="bz" fill="#fff"><use xlink:href="#bw"/></mask><use fill="url(#bx)" xlink:href="#bw"/><path d="M75.66 48.539c3.096-3.887 4.832-8.948 4.465-13.772a19.251 19.251 0 00-6.39-12.862 18.075 18.075 0 00-2.424-1.812c.028-.476.029-.952-.007-1.423-.508-6.665-6.11-10.683-12.392-10.683-.756 0-1.49.096-2.196.273a17.724 17.724 0 00-3.289-3.905C49.674 1.031 45.327 0 40.457 0c-5.354 0-9.985 3.1-12.917 7.413-1.6-.339-3.272-.477-5.015-.477-8.664 0-15.359 8.479-15.546 16.716-.214.133-.43.155-.639.297l-.01-.102a22.375 22.375 0 00-3.57 3.265c-3.287 3.757-4.951 8.848-4.571 13.839.368 4.833 2.651 9.435 6.266 12.636l.002.017A55.752 55.752 0 008.38 56.26l.076.054.022.012c.115.07.225.142.34.213l.119.054c-.01.511 0 1.023.038 1.53a18.497 18.497 0 006.14 12.36C19 73.922 23.5 74.99 28.542 74.99c2.489 0 4.828-.648 6.925-1.766 3.03 1.732 6.39 2.327 10.05 2.327 2.995 0 5.76-.986 8.12-2.614 2.596 1.129 5.414 1.538 8.44 1.538 9.394 0 16.525-9.753 15.85-18.617a17.42 17.42 0 00-2.266-7.32" fill="url(#by)" mask="url(#bz)" transform="rotate(5 39.154 37.776)"/><use fill="url(#bB)" xlink:href="#bA"/></g></g><g mask="url(#c)"><path d="M676.887 100.533l.11-.001c.516-.007 1.016-.031 1.52-.052 1.483-.073 2.855-.21 4.383-.385a563.08 563.08 0 006.942-.877 2274.604 2274.604 0 0017.908-2.415l.146-.02c2.863-.404 5.695-.812 8.346-1.204 7.283-1.08 13.199-2.048 14.613-2.522l.144-.049.112-.038c.266-.091.52-.183.774-.277a36.189 36.189 0 001.718-.675c.454-.193.89-.385 1.29-.578l-63.708 8.911a71.64 71.64 0 005.702.182z" fill="#B19AC9" fill-rule="nonzero"/><path d="M28.878 13.622c-6.627 3.343-4.328 7.55.333 9.981l59.615-8.339c2.241-1.08 3.618-2.137 4.106-2.924.151-.245.219-.465.197-.65-.089-.832-1.19-1.344-4.407-2.118l-.08-.054c-.377-.26-.665-.516-.985-.76a3.513 3.513 0 00-.118-.086c-1.17-.847-2.93-1.485-10.696-1.336-9.334.18-47.966 6.285-47.965 6.286" fill="url(#bC)" fill-rule="nonzero" transform="translate(646.067 76.175)"/><path d="M29.211 23.603c-4.66-2.431-6.96-6.638-.333-9.981 0 0-8.996-1.3-10.552-1.739-.396-.112-1.87-1.264-3.727-2.812l-10.83.823 3.217 7.98-2.968.568c1.365 2.915 1.21 2.586 1.279 2.729l.104.022c.505.106 1.03.21 1.547.314.676.137 1.353.273 2.029.403l.845.16c.758.143 1.516.283 2.27.417.314.055.631.107.947.16.735.127 1.47.25 2.2.365.361.057.725.108 1.088.162a116.055 116.055 0 003.835.517c.71.085 1.413.162 2.112.232.687.069 1.375.138 2.056.192.135.01.27.022.404.031.144.012.285.014.428.025 1.953.135 3.874.211 5.715.189-.58-.228-1.137-.481-1.666-.757z" fill="url(#bD)" fill-rule="nonzero" transform="translate(646.067 76.175)"/><path d="M.012.57l6.52 16.177 22.346-3.126c-2.498-.37-9.348-1.399-10.552-1.739C17.154 11.552 6.518 2.085 4.501.283A.95.95 0 003.735.05L.012.571z" fill="url(#bE)" fill-rule="nonzero" transform="translate(646.067 76.175)"/><path d="M10.683 7.024a.416.416 0 00-.426-.098L5.03 8.666a.404.404 0 00-.075.737l.928.405a5.342 5.342 0 011.96 1.921l.413.91a.418.418 0 00.752-.073l1.774-5.124a.393.393 0 00-.099-.418" fill="url(#bF)" transform="translate(646.067 76.175)"/><path d="M669.505 100.217l-.344-.03c-5.287-2.203-7.986-7.067-.877-10.325-1.766 1.084-4.757 2.998-3.718 5.87.73 1.955 2.966 3.472 4.939 4.485z" fill="#FFF" fill-rule="nonzero" opacity=".3"/><path d="M676.943 100.536l.053-.002-.11.001c.019.001.038.002.057.001z" fill="#F6F6F6" fill-rule="nonzero"/><path d="M651.315 97.244l.048.102c2.356.492 4.712.952 7.044 1.361l1.579-4.47-7.526-.074-1.336-.013.016.265.175 2.829z" fill="#2E2A21" fill-rule="nonzero" opacity=".2"/><path d="M729.905 85.562l.092.67c.012.09.08.162.167.178l1.858.262c.065.01.131.001.192-.025l1.342-.576 1.233-.325-.08-.053c-.376-.26-.665-.517-.985-.76-.038-.03-.078-.057-.118-.087l-3.535.494a.197.197 0 00-.166.222z" fill="#CEB9E3" fill-rule="nonzero"/><path d="M731.055 85.359l-.898.126a.066.066 0 00-.056.075l.054.399c.01.076.066.137.14.153l1.57.388-.62-1.045a.186.186 0 00-.19-.096zM732.51 85.212l-1.009.141c-.037.005-.055.047-.035.079l.641 1c.024.038.07.053.11.038l1.197-.441c.028-.01.034-.048.012-.067l-.86-.734a.081.081 0 00-.055-.016zM732.734 85.124l.996.783.98-.213c-.377-.26-.666-.517-.986-.76l-.99.19z" fill="#7B60A8" fill-rule="nonzero"/><g fill-rule="nonzero"><path d="M724.235 90.08l-.672-4.932a.5.5 0 01.421-.565l1.575-.22c.27-.038.52.153.557.426l.673 4.932a.5.5 0 01-.422.565l-1.574.22a.494.494 0 01-.558-.426zm-.24-5.412a.415.415 0 00-.35.468l.672 4.933a.412.412 0 00.463.355l1.575-.22a.415.415 0 00.35-.469l-.673-4.932a.412.412 0 00-.463-.356l-1.574.22z" fill="#1D1D1B" opacity=".2"/><path d="M724.653 86.499c.03.217.227.369.441.339a.396.396 0 00-.107-.786.396.396 0 00-.334.447z" fill="#706F6F" opacity=".3"/><path d="M724.742 86.487a.302.302 0 00.34.26.305.305 0 00.258-.344.302.302 0 10-.598.084z" fill="#B7A2CC"/><path d="M721.91 88.23l.247-.035a.316.316 0 00.266-.356l-.082-.598a.314.314 0 00-.35-.27l-.248.035a.316.316 0 00-.267.355l.082.598a.313.313 0 00.351.27z" fill="#9D9D9C"/><path d="M721.914 88.159l.22-.031a.282.282 0 00.237-.317l-.073-.53a.278.278 0 00-.312-.24l-.22.03a.282.282 0 00-.237.317l.072.532c.02.152.162.26.313.239z" fill="#B7A2CC"/><path d="M720.543 88.42l.248-.034a.316.316 0 00.266-.356l-.082-.598a.314.314 0 00-.352-.27l-.247.035a.315.315 0 00-.266.355l.082.598a.314.314 0 00.351.27z" fill="#9D9D9C"/><path d="M720.548 88.35l.22-.031a.281.281 0 00.236-.317l-.073-.532a.279.279 0 00-.312-.239l-.22.03a.282.282 0 00-.237.317l.072.531a.28.28 0 00.314.24z" fill="#B7A2CC"/><path d="M719.178 88.611l.247-.034a.316.316 0 00.267-.356l-.082-.598a.313.313 0 00-.351-.27l-.247.034a.316.316 0 00-.266.356l.082.598c.022.172.18.294.35.27z" fill="#9D9D9C"/><path d="M719.183 88.54l.22-.03a.281.281 0 00.236-.317l-.073-.53a.28.28 0 00-.313-.241l-.22.03a.281.281 0 00-.237.317l.073.532c.022.154.162.26.314.24z" fill="#B7A2CC"/><path d="M717.812 88.802l.247-.034a.317.317 0 00.267-.356l-.082-.598a.312.312 0 00-.351-.27l-.248.035a.317.317 0 00-.266.356l.082.598a.314.314 0 00.35.27z" fill="#9D9D9C"/><path d="M717.572 88.767l.71-.1a.03.03 0 00.025-.033l-.14-1.029a.03.03 0 00-.033-.026l-.71.1a.03.03 0 00-.025.034l.14 1.028a.03.03 0 00.033.026z" fill="#B7A2CC"/><path d="M716.446 88.993l.248-.034a.316.316 0 00.266-.356l-.081-.598a.313.313 0 00-.352-.27l-.247.035a.315.315 0 00-.266.356l.082.598c.022.171.18.292.35.27z" fill="#9D9D9C"/><path d="M716.451 88.923l.22-.03a.281.281 0 00.236-.317l-.073-.532a.278.278 0 00-.312-.24l-.22.031a.281.281 0 00-.236.317l.072.531a.279.279 0 00.313.24z" fill="#B7A2CC"/><path d="M715.081 89.184l.247-.034a.315.315 0 00.266-.356l-.082-.598a.313.313 0 00-.35-.27l-.248.034a.316.316 0 00-.267.356l.082.598a.314.314 0 00.352.27z" fill="#9D9D9C"/><path d="M714.84 89.149l.71-.1a.03.03 0 00.026-.034l-.14-1.028a.03.03 0 00-.034-.026l-.71.1a.03.03 0 00-.025.033l.14 1.028a.03.03 0 00.033.027z" fill="#B7A2CC"/><path d="M713.715 89.375l.247-.034a.315.315 0 00.266-.356l-.082-.598a.314.314 0 00-.351-.27l-.247.034a.316.316 0 00-.267.356l.082.598a.314.314 0 00.352.27z" fill="#9D9D9C"/><path d="M713.72 89.305l.22-.03a.281.281 0 00.236-.317l-.073-.531a.28.28 0 00-.313-.24l-.22.03a.281.281 0 00-.236.317l.073.532c.021.153.162.26.313.24z" fill="#B7A2CC"/><path d="M712.35 89.566l.247-.035a.315.315 0 00.266-.355l-.082-.598a.313.313 0 00-.351-.27l-.248.034a.316.316 0 00-.266.356l.082.598a.314.314 0 00.352.27z" fill="#9D9D9C"/><path d="M712.353 89.496l.22-.03a.28.28 0 00.236-.317l-.072-.532a.279.279 0 00-.313-.24l-.22.031a.281.281 0 00-.236.317l.073.53a.28.28 0 00.312.241z" fill="#B7A2CC"/><path d="M710.983 89.757l.247-.035a.316.316 0 00.267-.355l-.082-.598a.313.313 0 00-.352-.27l-.247.034a.316.316 0 00-.266.356l.081.598a.313.313 0 00.352.27z" fill="#9D9D9C"/><path d="M710.988 89.687l.22-.03a.281.281 0 00.236-.317l-.073-.532a.278.278 0 00-.312-.24l-.22.031a.281.281 0 00-.236.317l.073.532c.02.152.161.26.312.239z" fill="#B7A2CC"/><path d="M709.618 89.949l.248-.035a.315.315 0 00.265-.356l-.08-.597a.313.313 0 00-.352-.27l-.247.034a.317.317 0 00-.267.356l.082.598a.313.313 0 00.351.27z" fill="#9D9D9C"/><path d="M709.623 89.879l.22-.03a.281.281 0 00.236-.318l-.073-.53a.278.278 0 00-.312-.24l-.22.031a.282.282 0 00-.237.317l.072.531a.28.28 0 00.314.239z" fill="#B7A2CC"/><path d="M708.252 90.14l.247-.035a.315.315 0 00.266-.356l-.08-.598a.313.313 0 00-.352-.27l-.247.036a.317.317 0 00-.267.356l.082.597a.314.314 0 00.351.27z" fill="#9D9D9C"/><path d="M708.257 90.07l.22-.031a.282.282 0 00.237-.317l-.073-.531a.279.279 0 00-.313-.24l-.22.031a.282.282 0 00-.237.317l.073.531a.28.28 0 00.313.24z" fill="#B7A2CC"/><path d="M705.122 90.577l.248-.034a.316.316 0 00.265-.356l-.08-.598a.314.314 0 00-.352-.27l-.247.035a.316.316 0 00-.266.355l.082.598a.313.313 0 00.35.27z" fill="#9D9D9C"/><path d="M705.127 90.508l.22-.031a.282.282 0 00.237-.317l-.073-.53a.28.28 0 00-.312-.241l-.22.03a.281.281 0 00-.236.317l.072.532c.02.153.161.26.312.24z" fill="#B7A2CC"/><path d="M703.674 90.78l.248-.035a.316.316 0 00.266-.356l-.081-.598a.314.314 0 00-.352-.27l-.247.035a.315.315 0 00-.266.355l.081.598a.314.314 0 00.351.27z" fill="#9D9D9C"/><path d="M703.679 90.71l.22-.031a.281.281 0 00.236-.317l-.073-.532a.279.279 0 00-.312-.239l-.22.03a.282.282 0 00-.237.317l.073.532a.28.28 0 00.313.24z" fill="#B7A2CC"/><path d="M702.226 90.983l.248-.035a.316.316 0 00.266-.356l-.081-.598a.313.313 0 00-.352-.27l-.247.035a.317.317 0 00-.267.355l.082.598a.314.314 0 00.351.27z" fill="#9D9D9C"/><path d="M702.231 90.913l.22-.031a.281.281 0 00.236-.317l-.073-.532a.278.278 0 00-.312-.239l-.219.03a.281.281 0 00-.236.317l.072.532c.02.152.161.26.312.24z" fill="#B7A2CC"/><path d="M700.778 91.185l.248-.035a.318.318 0 00.266-.356l-.081-.598a.315.315 0 00-.353-.27l-.247.035a.316.316 0 00-.267.356l.082.598a.315.315 0 00.352.27z" fill="#9D9D9C"/><path d="M700.538 91.15l.71-.1a.03.03 0 00.026-.034l-.14-1.028a.03.03 0 00-.033-.026l-.71.1a.03.03 0 00-.025.033l.14 1.028a.029.029 0 00.032.026z" fill="#B7A2CC"/><path d="M699.33 91.387l.248-.035a.316.316 0 00.266-.356l-.082-.597a.314.314 0 00-.35-.27l-.248.034a.316.316 0 00-.267.356l.082.598a.313.313 0 00.351.27z" fill="#9D9D9C"/><path d="M699.335 91.317l.22-.03a.282.282 0 00.237-.318l-.073-.531a.279.279 0 00-.312-.24l-.22.031a.281.281 0 00-.236.317l.072.532c.02.152.161.26.312.239z" fill="#B7A2CC"/><path d="M697.882 91.59l.248-.035a.316.316 0 00.266-.355l-.082-.598a.313.313 0 00-.35-.27l-.247.034a.316.316 0 00-.267.356l.082.598a.313.313 0 00.35.27z" fill="#9D9D9C"/><path d="M697.887 91.52l.22-.03a.282.282 0 00.237-.317l-.073-.532a.279.279 0 00-.312-.24l-.22.031a.281.281 0 00-.236.317l.072.53c.02.154.161.262.312.24z" fill="#B7A2CC"/><path d="M697.274 92.353l-.268-1.96a.558.558 0 01.47-.63l.556-.077a.553.553 0 01.622.477l.267 1.96a.557.557 0 01-.47.63l-.556.076a.552.552 0 01-.621-.476zm.214-2.506a.474.474 0 00-.4.535l.267 1.96a.47.47 0 00.527.404l.556-.078a.473.473 0 00.399-.534l-.267-1.96a.47.47 0 00-.528-.405l-.554.078z" fill="#575756" opacity=".2"/><path d="M696.439 91.723l.22-.03a.281.281 0 00.236-.317l-.073-.532a.28.28 0 00-.312-.24l-.22.03a.282.282 0 00-.237.317l.072.53a.281.281 0 00.314.242z" fill="#B7A2CC"/><path d="M694.986 91.995l.248-.035a.316.316 0 00.266-.355l-.082-.598a.314.314 0 00-.35-.27l-.248.034a.316.316 0 00-.267.356l.082.598a.314.314 0 00.351.27z" fill="#9D9D9C"/><path d="M694.99 91.925l.22-.03a.282.282 0 00.238-.317l-.073-.532a.279.279 0 00-.312-.24l-.22.031a.281.281 0 00-.236.317l.072.532c.02.152.161.26.312.239z" fill="#B7A2CC"/><path d="M693.467 92.207l.39-.054a.243.243 0 00.204-.274l-.1-.741a.242.242 0 00-.271-.208l-.39.054a.243.243 0 00-.205.274l.101.742c.02.132.14.226.271.207z" fill="#9D9D9C"/><path d="M693.543 92.127l.22-.03a.28.28 0 00.236-.317l-.073-.532a.279.279 0 00-.312-.24l-.22.031a.282.282 0 00-.237.317l.072.53a.28.28 0 00.314.241z" fill="#B7A2CC"/><path d="M692.09 92.4l.248-.034a.316.316 0 00.266-.356l-.082-.598a.313.313 0 00-.35-.27l-.248.034a.316.316 0 00-.266.356l.082.598a.313.313 0 00.35.27z" fill="#9D9D9C"/><path d="M691.85 92.365l.71-.1a.03.03 0 00.026-.034l-.14-1.028a.03.03 0 00-.034-.026l-.71.1a.03.03 0 00-.025.033l.14 1.029a.03.03 0 00.033.026z" fill="#B7A2CC"/><path d="M690.642 92.602l.248-.034a.315.315 0 00.265-.356l-.08-.598a.314.314 0 00-.352-.27l-.247.034a.316.316 0 00-.267.356l.082.598a.312.312 0 00.351.27z" fill="#9D9D9C"/><path d="M690.647 92.532l.22-.03a.281.281 0 00.236-.317l-.073-.532a.279.279 0 00-.312-.24l-.22.031a.28.28 0 00-.236.317l.072.532c.021.153.162.26.313.24z" fill="#B7A2CC"/><path d="M689.194 92.805l.248-.034a.316.316 0 00.266-.356l-.082-.598a.313.313 0 00-.35-.27l-.248.034a.315.315 0 00-.266.356l.082.598c.022.172.18.293.35.27z" fill="#9D9D9C"/><path d="M689.199 92.735l.22-.03a.281.281 0 00.236-.317l-.073-.532a.279.279 0 00-.312-.24l-.22.031a.282.282 0 00-.237.317l.072.532a.28.28 0 00.314.24z" fill="#B7A2CC"/><path d="M687.746 93.008l.248-.034a.317.317 0 00.266-.356l-.082-.598a.312.312 0 00-.35-.27l-.248.035a.317.317 0 00-.267.357l.082.598c.023.17.181.291.351.268z" fill="#9D9D9C"/><path d="M687.75 92.937l.22-.03a.28.28 0 00.237-.317l-.073-.53a.28.28 0 00-.312-.241l-.22.03a.282.282 0 00-.237.317l.072.532a.28.28 0 00.314.24z" fill="#B7A2CC"/><path d="M686.298 93.21l.247-.034a.315.315 0 00.266-.356l-.08-.598a.314.314 0 00-.352-.27l-.247.035a.316.316 0 00-.267.355l.082.598a.313.313 0 00.351.27z" fill="#9D9D9C"/><path d="M686.303 93.14l.22-.03a.282.282 0 00.237-.317l-.073-.532a.279.279 0 00-.313-.24l-.22.032a.282.282 0 00-.236.316l.072.532a.28.28 0 00.313.24z" fill="#B7A2CC"/><path d="M684.85 93.412l.247-.034a.316.316 0 00.267-.356l-.08-.598a.313.313 0 00-.353-.269l-.247.035a.315.315 0 00-.266.355l.082.598c.022.172.18.294.35.27z" fill="#9D9D9C"/><path d="M684.855 93.343l.22-.031a.281.281 0 00.236-.317l-.073-.532a.28.28 0 00-.312-.24l-.22.03a.281.281 0 00-.236.317l.072.531a.279.279 0 00.313.242z" fill="#B7A2CC"/><path d="M683.402 93.615l.247-.034a.316.316 0 00.267-.356l-.082-.598a.312.312 0 00-.351-.269l-.247.035a.316.316 0 00-.267.355l.082.598a.314.314 0 00.351.27z" fill="#9D9D9C"/><path d="M683.162 93.58l.71-.1a.03.03 0 00.026-.033l-.14-1.028a.03.03 0 00-.033-.026l-.71.1a.03.03 0 00-.026.033l.14 1.028c.001.017.017.028.033.026z" fill="#B7A2CC"/><path d="M681.954 93.818l.247-.035a.315.315 0 00.266-.356l-.082-.598a.314.314 0 00-.35-.27l-.248.035a.316.316 0 00-.267.356l.082.597a.315.315 0 00.352.271z" fill="#9D9D9C"/><path d="M681.959 93.748l.22-.031a.281.281 0 00.236-.317l-.073-.53a.28.28 0 00-.312-.24l-.22.03a.281.281 0 00-.237.317l.073.531c.021.153.162.261.313.24z" fill="#B7A2CC"/><path d="M680.506 94.02l.247-.034a.316.316 0 00.267-.356l-.082-.598a.313.313 0 00-.351-.27l-.247.035a.315.315 0 00-.266.356l.082.598c.022.172.18.293.35.27z" fill="#9D9D9C"/><path d="M680.51 93.95l.22-.03a.281.281 0 00.237-.317l-.073-.531a.279.279 0 00-.313-.24l-.22.03a.281.281 0 00-.236.318l.073.531a.28.28 0 00.313.24z" fill="#B7A2CC"/><path d="M679.058 94.223l.247-.035a.317.317 0 00.267-.356l-.082-.597a.313.313 0 00-.351-.27l-.247.034a.317.317 0 00-.267.356l.082.598a.313.313 0 00.351.27z" fill="#9D9D9C"/><path d="M678.818 94.187l.71-.1a.03.03 0 00.026-.033l-.14-1.028a.03.03 0 00-.034-.026l-.71.1a.03.03 0 00-.026.033l.14 1.028c.003.017.018.03.034.026z" fill="#B7A2CC"/><path d="M677.61 94.426l.247-.035a.317.317 0 00.267-.356l-.082-.597a.313.313 0 00-.351-.27l-.247.034a.315.315 0 00-.266.356l.08.598a.313.313 0 00.352.27z" fill="#9D9D9C"/><path d="M677.615 94.356l.22-.03a.282.282 0 00.237-.318l-.073-.531a.279.279 0 00-.313-.24l-.22.031a.282.282 0 00-.237.317l.073.532a.28.28 0 00.313.239z" fill="#B7A2CC"/><path d="M676.162 94.628l.247-.035a.316.316 0 00.267-.355l-.082-.598a.314.314 0 00-.351-.27l-.247.034a.316.316 0 00-.266.356l.082.598a.31.31 0 00.35.27z" fill="#9D9D9C"/><path d="M676.167 94.558l.22-.03a.281.281 0 00.236-.317l-.073-.532a.279.279 0 00-.313-.24l-.22.031a.28.28 0 00-.236.317l.073.532c.021.152.162.26.313.239z" fill="#B7A2CC"/><path d="M674.714 94.83l.247-.034a.317.317 0 00.267-.355l-.082-.598a.313.313 0 00-.351-.27l-.247.035a.317.317 0 00-.267.356l.082.598a.313.313 0 00.351.269z" fill="#9D9D9C"/><path d="M674.473 94.795l.71-.1a.03.03 0 00.026-.033l-.14-1.028a.03.03 0 00-.033-.026l-.71.1a.03.03 0 00-.026.033l.14 1.028a.03.03 0 00.033.026z" fill="#B7A2CC"/><path d="M673.266 95.033l.247-.034a.316.316 0 00.267-.356l-.082-.598a.313.313 0 00-.351-.27l-.247.034a.316.316 0 00-.267.356l.082.598a.313.313 0 00.351.27z" fill="#9D9D9C"/><path d="M673.27 94.963l.22-.03a.281.281 0 00.237-.317l-.073-.531a.28.28 0 00-.313-.24l-.22.03a.281.281 0 00-.236.317l.073.532c.021.153.162.26.313.24z" fill="#B7A2CC"/><path d="M666.727 97.705l-.637-4.673a.548.548 0 01.462-.617l1.132-.158a.543.543 0 01.61.466l.636 4.672a.548.548 0 01-.461.617l-1.133.159a.54.54 0 01-.609-.466zm-.163-5.206a.463.463 0 00-.391.522l.637 4.672a.46.46 0 00.516.396l1.133-.159a.462.462 0 00.39-.522l-.638-4.672a.46.46 0 00-.516-.396l-1.131.159z" fill="#575756"/></g><g fill-rule="nonzero"><path d="M646.887 92.746l.91.507 3.847 2.144c.623.033 1.278.05 1.934.05 2.436.004 4.893-.199 5.849-.515.029-.009.058-.02.086-.03.926-.324 1.02-.69.732-.97-.285-.277-9.564-1.5-10.315-1.598l-.043-.006h-.003l-2.997.418z" fill="#71558F"/><path d="M646.888 92.746l.006.003c.452.2 2.024.089 2.772-.003.377-.046.446-.364.266-.413a.157.157 0 00-.043-.006h-.003l-2.988.418-.01.001z" fill="#F6F6F6"/><path d="M649.666 92.746c.376-.045.446-.364.265-.413.75.099 10.03 1.32 10.315 1.598.288.28.194.646-.732.97l-.264-.03-1.109-.44-8.475-1.685z" fill="#E6D8F5"/><path d="M647.796 93.252l3.848 2.144c.623.033 1.278.05 1.934.05l-5.031-2.19-.75-.004z" fill="#71558F"/></g><g fill-rule="nonzero"><path d="M681.434 95.487l11.361 1.67 6.363-1.302.224-.045c.02-.352-.16-.507-.635-.72-.279-.126-12.753-.637-13.11-.588-1.67.236-4.203.985-4.203.985z" fill="#B19AC9"/><path d="M685.635 94.502l.19.321 13.036 1.074.296-.04.224-.046c.02-.352-.16-.507-.634-.72-.28-.127-12.754-.64-13.112-.589z" fill="#E6D8F5"/><path d="M3.643 2.114l.602 4.421c2.772-.354 6.486-.955 8.066-1.573.388-.15.648-.303.732-.453a.187.187 0 00.014-.027L12.489.31c-.217-.108-.503-.183-.842-.226C9.76-.158 6.22.577 3.643 2.114z" fill="url(#bG)" transform="translate(690.933 93.87)"/><path d="M702.58 93.954l.664 4.879c.411-.16.678-.322.746-.482l-.568-4.171c-.217-.107-.503-.182-.843-.226z" fill="#838584"/><path fill="#2E2A21" d="M692.939 99.778l2.205.372-.509-3.727-2.022.964zM691.03 99.162l1.857.239-.223-1.637-1.724.74z"/></g><path d="M724.937 83.909c-.05-.377-15.257 1.351-33.967 3.861-18.71 2.51-33.838 4.85-33.789 5.229.05.377 15.258-1.352 33.968-3.862 18.71-2.51 33.837-4.85 33.788-5.228z" fill="#FFF" fill-rule="nonzero" opacity=".4"/></g><g mask="url(#c)"><g transform="translate(1154.932 188.462)"><rect fill="#FFD1EE" filter="url(#bH)" width="23.306" height="2.798" rx="1.399"/><rect fill="#FFD1EE" filter="url(#bI)" width="23.306" height="2.798" rx="1.399"/><rect fill="#F7D2FB" filter="url(#bJ)" width="4.661" height="2.798" rx="1.399"/><rect fill="#F7D2FB" filter="url(#bK)" x="19.577" width="3.729" height="2.798" rx="1.399"/><rect fill="#F7D2FB" filter="url(#bL)" width="4.661" height="2.798" rx="1.399"/><rect fill="#F7D2FB" filter="url(#bM)" x="19.577" width="3.729" height="2.798" rx="1.399"/><rect fill="#F7D2FB" filter="url(#bN)" width="4.661" height="2.798" rx="1.399"/><rect fill="#F7D2FB" filter="url(#bO)" x="19.577" width="3.729" height="2.798" rx="1.399"/><rect fill="#F7D2FB" filter="url(#bP)" width="4.661" height="2.798" rx="1.399"/><rect fill="#F7D2FB" filter="url(#bQ)" x="19.577" width="3.729" height="2.798" rx="1.399"/><rect fill="#F4D1FF" filter="url(#bR)" width="4.661" height="2.798" rx="1.399"/><rect fill="#F4D1FF" filter="url(#bS)" x="19.577" width="3.729" height="2.798" rx="1.399"/></g></g><path d="M565.198 107.164l83.902-.006a.933.933 0 110 1.865l-83.902.007a.933.933 0 010-1.865z" fill="url(#bT)" mask="url(#c)" transform="rotate(-9 607.149 108.094)"/><path d="M569.859 109.03l83.903-.007a.933.933 0 010 1.865l-83.903.007a.933.933 0 010-1.865z" fill="url(#bT)" mask="url(#c)" transform="rotate(-9 611.81 109.96)"/></g></svg>